<svg width="792" height="408" viewBox="0 0 792 408" fill="none" xmlns="http://www.w3.org/2000/svg"><path d="M78.28 26.548v3.648c0 1.136.256 1.472 1.376 1.472h1.504c.912 0 1.216-.496 1.328-2.512-.304-.08-.768-.24-.992-.432-.048 1.696-.112 1.92-.48 1.92h-1.2c-.368 0-.432-.064-.432-.448v-3.648H78.28Zm-2.608-5.04h4.448v1.696h-4.448v-1.696Zm0 2.64h4.448v1.712h-4.448v-1.712Zm0-5.264h4.448v1.664h-4.448v-1.664Zm-1.12-.992v8.96h6.72v-8.96h-6.72Zm1.312 8.624c-.224 2.048-.816 3.552-3.2 4.352.24.224.576.656.704.928 2.656-1.008 3.392-2.784 3.664-5.28h-1.168Zm-7.984-6.448v1.104h4.992v-1.104H67.88Zm2.336 4.784v6.928h1.168v-8.336l-1.168 1.408Zm0-7.776v3.536h1.168v-3.536h-1.168Zm1.168 6.528-.704.64c.64.576 2.096 2.112 2.64 2.832l.736-1.008c-.416-.416-2.16-2.048-2.672-2.464Zm1.088-3.536v.256c-.928 2.432-3.104 4.864-5.168 6.144.192.208.496.768.608 1.072 2.192-1.472 4.544-4.144 5.68-7.072l-.672-.448-.208.048h-.24Zm17.792-3.008v5.456h1.216V17.06h-1.216Zm-3.488 6.016h8.368v2.864h-8.368v-2.864ZM85.64 21.94v5.12h10.72v-5.12H85.64Zm5.184-3.168v1.136h6.736v-1.136h-6.736Zm-2.4 9.68c.208 1.04.336 2.384.336 3.2l1.232-.16c-.016-.784-.192-2.096-.416-3.136l-1.152.096Zm3.312.016c.48 1.008.96 2.336 1.12 3.136l1.184-.288c-.192-.816-.72-2.112-1.216-3.072l-1.088.224ZM95 28.34c.816 1.024 1.696 2.432 2.064 3.312l1.136-.464c-.384-.896-1.312-2.256-2.128-3.248l-1.072.4Zm-9.168-.304c-.496 1.184-1.328 2.48-2.176 3.2l1.104.544c.864-.848 1.68-2.208 2.208-3.456l-1.136-.288Zm22.032-7.68.912-.72c-.592-.624-1.808-1.632-2.336-2.048l-.912.656c.672.512 1.728 1.488 2.336 2.112Zm-5.088-1.392-1.296.528c.256.32.576.832.768 1.152.544.912 1.264 2.464 2.016 4.144.912 2.096 1.68 4.656 2.176 6.56l1.376-.368c-.544-1.776-1.568-4.736-2.432-6.736-.656-1.456-1.424-3.072-2.048-4.192-.16-.304-.432-.816-.56-1.088Zm-2.832 4.672.624 1.312c2.016-.88 6.752-3.648 9.424-3.648 1.568 0 2.32.88 2.32 1.824 0 1.136-.72 2.112-2.48 2.112-.848 0-1.648-.24-2.272-.528l-.032 1.264a7.207 7.207 0 0 0 2.4.448c2.496 0 3.664-1.392 3.664-3.248 0-1.744-1.344-2.992-3.568-2.992-2.656 0-6.544 2.176-8.768 3.024-.288.128-.848.32-1.312.432Zm17.12 6v1.152h11.856v-1.152h-11.856Zm-1.152-11.52v1.136h14.16v-1.136h-14.16Zm.496 2.736V31.78h1.168V20.852h-1.168Zm12.032 0v10.88h1.184v-10.88h-1.184Zm-6.112-2.384v3.088h1.216v-3.088h-1.216Zm.08 2.992v6.336h1.056V21.46h-1.056Zm-2.288 3.648h5.648v2.096h-5.648v-2.096Zm0-3.056h5.648v2.08h-5.648v-2.08Zm-1.024-1.024v7.2h7.728v-7.2h-7.728Zm17.584 3.152v.992h4.384v-.992h-4.384Zm0 2.784v.992h4.432v-.992h-4.432Zm-3.296 2.864v1.12h11.296v-1.12h-11.296Zm-.736-8.544v10.512h1.168v-9.392h10.304v9.392h1.216V21.284h-12.688Zm3.472.704v8.352h1.088v-8.352h-1.088Zm4.48 0v8.304h1.104v-8.304H140.6Zm-2.4-3.328c-.112.928-.432 2.256-.688 3.12l1.088.304c.32-.8.656-2.032.992-3.104l-1.392-.32Zm-6.272-.528v1.152h14.176v-1.152h-14.176Zm25.344-1.056c-.704 1.232-2.096 2.656-4.096 3.664.256.176.608.56.768.816 2.16-1.184 3.6-2.72 4.528-4.272l-1.2-.208Zm-.384 1.392-.704.992h4.592v-.992h-3.888Zm3.472 0v.192c-1.056 2.8-3.936 4.608-6.896 5.328.208.24.512.688.624.976 3.216-.928 6.208-2.832 7.472-6.192l-.768-.368-.208.064h-.224Zm-5.136 2.128c.864.544 1.92 1.392 2.4 1.968l.8-.672c-.512-.592-1.552-1.392-2.432-1.904l-.768.608Zm2.896 2.496c-.784 1.408-2.384 3.008-4.736 4.112.256.176.608.56.768.832 2.496-1.28 4.16-2.992 5.184-4.736l-1.216-.208Zm-.448 1.52-.72 1.024h4.544v-1.024h-3.824Zm3.472 0v.192c-1.136 3.424-4.4 5.28-8.016 5.968.208.256.48.72.608 1.024 3.872-.88 7.28-2.848 8.64-6.896l-.768-.336-.224.048h-.24Zm-5.568 2.4c1.024.608 2.208 1.52 2.768 2.192l.848-.752c-.576-.656-1.776-1.552-2.8-2.112l-.816.672Zm-5.184-8.624v13.36h1.168v-13.36h-1.168Zm-2.624 3.184v1.136h5.808v-1.136h-5.808Zm2.688.432c-.576 1.984-1.856 4.48-3.008 5.76.208.272.496.768.608 1.104 1.232-1.488 2.512-4.288 3.152-6.544l-.752-.32Zm2.304-4.704c-1.168.544-3.28.992-5.088 1.296.144.272.304.656.368.928 1.856-.256 4.096-.704 5.568-1.296l-.848-.928Zm-1.248 6.336-.56.48c.496.56 1.696 2.08 2.08 2.736l.704-.944c-.32-.4-1.824-1.92-2.224-2.272Zm12.592 3.888v.912h7.296v-.912h-7.296Zm-.432-7.712v.928h7.984v-.928h-7.984Zm3.472-1.456v11.776h1.104V18.356h-1.104Zm-3.488 11.808.176 1.04c2.032-.208 4.928-.544 7.648-.864l-.016-.944a534.22 534.22 0 0 1-7.808.768Zm1.488-5.632h5.184v1.184h-5.184v-1.184Zm0-1.952h5.184v1.152h-5.184V22.58Zm-1.008-.832v4.8h7.216v-4.8h-7.216Zm6.64-4.528c-1.648.384-4.56.672-6.944.8.128.24.24.64.288.896 2.4-.08 5.376-.352 7.264-.768l-.608-.928Zm.768 3.584v1.12h5.776v-1.12h-5.776Zm5.312 0v.288c-.176 6.48-.352 8.784-.752 9.28-.144.208-.304.256-.56.256-.32 0-1.024-.016-1.808-.08.192.32.32.816.352 1.152.736.048 1.504.048 1.952 0 .48-.048.8-.192 1.088-.608.528-.688.688-2.928.864-9.68 0-.16.016-.608.016-.608h-1.152Zm-3.376-3.536c-.016 6.048.064 11.12-3.6 13.744.288.192.704.576.896.864 3.824-2.864 3.84-8.24 3.856-14.608h-1.152Z" fill="#000" fill-opacity=".85"/><path fill-rule="evenodd" clip-rule="evenodd" d="M98.648 61.503c.156-.002.312-.003.469-.003 10.55 0 18.369 4.547 23.531 10.302 5.113 5.701 7.685 12.667 7.685 17.672v39.052c0 4.593-2.788 11.554-7.954 17.329-5.223 5.837-13.034 10.645-23.262 10.645-10.195 0-18.222-4.549-23.68-10.267C70.035 140.571 67 133.598 67 128.526V89.474c0-5.007 2.788-11.912 8.039-17.569 5.3-5.71 13.215-10.268 23.609-10.402Zm1.527 3.078v36.126h27.142V89.474c0-4.112-2.199-10.368-6.898-15.608-4.479-4.994-11.169-8.995-20.244-9.285Zm27.142 39.191H70.016v24.754c0 4.045 2.548 10.294 7.587 15.573 4.986 5.224 12.263 9.336 21.514 9.336 9.217 0 16.26-4.31 21.03-9.642 4.827-5.395 7.17-11.654 7.17-15.267v-24.754Zm-57.301-3.065h27.143V64.622c-8.724.52-15.377 4.485-19.926 9.386-4.862 5.237-7.217 11.424-7.217 15.466v11.233Z" fill="#444"/><path d="M94.027 89.188v-9.879c0-1.796 1.67-4.49 4.641-4.49s4.639 2.694 4.639 4.49v9.879c0 1.796-.926 4.49-4.639 4.49s-4.639-2.694-4.64-4.49Z" fill="#9D9D9D"/><path fill-rule="evenodd" clip-rule="evenodd" d="M94.108 75.37c1.033-1.177 2.586-2.084 4.56-2.084 1.973 0 3.525.907 4.558 2.084 1.001 1.14 1.588 2.615 1.588 3.938v9.879c0 1.126-.284 2.62-1.25 3.866-1.017 1.313-2.638 2.156-4.897 2.156-2.258 0-3.88-.843-4.897-2.156-.965-1.246-1.25-2.74-1.251-3.865v-9.88c0-1.323.587-2.799 1.588-3.938Zm2.25 2.04c-.577.657-.824 1.426-.824 1.898v9.878c.001.67.18 1.422.606 1.971.375.484 1.073.988 2.527.988 1.454 0 2.152-.504 2.527-.987.425-.55.604-1.301.604-1.971v-9.879c0-.472-.246-1.242-.822-1.898-.544-.619-1.31-1.06-2.309-1.06-.998 0-1.766.441-2.31 1.06Z" fill="#9D9D9D"/><path d="M170.715 95.67c0 .546-.042 1.4-.14 1.946h2.198a21.719 21.719 0 0 1-.126-1.946c0-1.036-.014-6.51-.014-8.05 0-.588.07-1.19.126-1.694h-2.184c.098.504.14 1.19.14 1.694v8.05Zm1.512-6.118v2.016c1.526.504 3.878 1.4 5.474 2.226l.784-1.946c-1.372-.672-4.396-1.778-6.258-2.296Zm11.228-3.29v1.82c.406-.042.994-.056 1.456-.056h5.348c.518 0 1.176.028 1.54.056v-1.82c-.378.056-1.064.084-1.512.084h-5.376c-.476 0-1.078-.028-1.456-.084Zm9.534 4.074-1.246-.784c-.196.098-.574.154-1.036.154h-6.916c-.448 0-1.036-.042-1.638-.098v1.82a26.146 26.146 0 0 1 1.638-.056h6.748a5.987 5.987 0 0 1-1.428 2.408c-1.078 1.106-2.744 2.016-4.858 2.464l1.4 1.582c1.792-.518 3.584-1.456 4.998-3.038 1.036-1.148 1.638-2.52 2.072-3.878a4.01 4.01 0 0 1 .266-.574Zm8.4-1.638-1.652.546c.336.728.952 2.422 1.134 3.094l1.666-.574c-.196-.644-.882-2.478-1.148-3.066Zm5.166 1.008-1.96-.63c-.154 1.764-.84 3.626-1.792 4.802-1.148 1.456-3.108 2.52-4.634 2.94l1.47 1.498a10.934 10.934 0 0 0 4.676-3.486c.952-1.218 1.554-2.674 1.918-4.088.084-.28.168-.574.322-1.036Zm-8.414-.28-1.68.616c.336.602 1.05 2.478 1.274 3.22l1.708-.63c-.266-.784-.952-2.492-1.302-3.206Zm21.098-3.892-1.12.462c.378.532.812 1.372 1.106 1.946l1.12-.49c-.266-.518-.756-1.4-1.106-1.918Zm1.652-.63-1.106.462c.378.518.826 1.344 1.12 1.918l1.12-.476c-.252-.49-.77-1.372-1.134-1.904Zm-.406 3.71-1.428-.882c-.322.112-.784.168-1.218.168h-4.004l-.644 1.596h4.718c-.224 1.036-1.036 2.716-1.988 3.808-1.218 1.386-2.772 2.604-5.642 3.472l1.652 1.47c2.632-1.036 4.326-2.324 5.656-3.948 1.26-1.554 2.058-3.43 2.436-4.676.112-.35.308-.728.462-1.008Zm-4.564-2.212-2.044-.672a6.454 6.454 0 0 1-.63 1.47c-.7 1.204-1.918 3.01-4.382 4.508l1.582 1.162c2.002-1.372 3.682-3.346 4.62-5.04.168-.294.532-.938.854-1.428Zm13.412 2.996c.56 0 1.05-.42 1.05-1.05 0-.644-.49-1.064-1.05-1.064-.574 0-1.064.42-1.064 1.064 0 .63.49 1.05 1.064 1.05Zm0 6.846c.56 0 1.05-.406 1.05-1.05s-.49-1.05-1.05-1.05c-.574 0-1.064.406-1.064 1.05s.49 1.05 1.064 1.05Zm16.87-2.702v3.192c0 .994.224 1.288 1.204 1.288h1.316c.798 0 1.064-.434 1.162-2.198-.266-.07-.672-.21-.868-.378-.042 1.484-.098 1.68-.42 1.68h-1.05c-.322 0-.378-.056-.378-.392v-3.192h-.966Zm-2.282-4.41h3.892v1.484h-3.892v-1.484Zm0 2.31h3.892v1.498h-3.892v-1.498Zm0-4.606h3.892v1.456h-3.892v-1.456Zm-.98-.868v7.84h5.88v-7.84h-5.88Zm1.148 7.546c-.196 1.792-.714 3.108-2.8 3.808.21.196.504.574.616.812 2.324-.882 2.968-2.436 3.206-4.62h-1.022Zm-6.986-5.642v.966h4.368v-.966h-4.368Zm2.044 4.186v6.062h1.022v-7.294l-1.022 1.232Zm0-6.804v3.094h1.022v-3.094h-1.022Zm1.022 5.712-.616.56c.56.504 1.834 1.848 2.31 2.478l.644-.882c-.364-.364-1.89-1.792-2.338-2.156Zm.952-3.094v.224c-.812 2.128-2.716 4.256-4.522 5.376.168.182.434.672.532.938 1.918-1.288 3.976-3.626 4.97-6.188l-.588-.392-.182.042h-.21Zm15.568-2.632v4.774h1.064V85.24h-1.064Zm-3.052 5.264h7.322v2.506h-7.322v-2.506Zm-.994-.994v4.48h9.38v-4.48h-9.38Zm4.536-2.772v.994h5.894v-.994h-5.894Zm-2.1 8.47c.182.91.294 2.086.294 2.8l1.078-.14c-.014-.686-.168-1.834-.364-2.744l-1.008.084Zm2.898.014c.42.882.84 2.044.98 2.744l1.036-.252c-.168-.714-.63-1.848-1.064-2.688l-.952.196Zm2.856-.112c.714.896 1.484 2.128 1.806 2.898l.994-.406c-.336-.784-1.148-1.974-1.862-2.842l-.938.35Zm-8.022-.266c-.434 1.036-1.162 2.17-1.904 2.8l.966.476c.756-.742 1.47-1.932 1.932-3.024l-.994-.252Zm20.51-9.59c-.616 1.078-1.834 2.324-3.584 3.206.224.154.532.49.672.714 1.89-1.036 3.15-2.38 3.962-3.738l-1.05-.182Zm-.336 1.218-.616.868h4.018v-.868h-3.402Zm3.038 0v.168c-.924 2.45-3.444 4.032-6.034 4.662.182.21.448.602.546.854 2.814-.812 5.432-2.478 6.538-5.418l-.672-.322-.182.056h-.196Zm-4.494 1.862c.756.476 1.68 1.218 2.1 1.722l.7-.588c-.448-.518-1.358-1.218-2.128-1.666l-.672.532Zm2.534 2.184c-.686 1.232-2.086 2.632-4.144 3.598.224.154.532.49.672.728 2.184-1.12 3.64-2.618 4.536-4.144l-1.064-.182Zm-.392 1.33-.63.896h3.976v-.896h-3.346Zm3.038 0v.168c-.994 2.996-3.85 4.62-7.014 5.222.182.224.42.63.532.896 3.388-.77 6.37-2.492 7.56-6.034l-.672-.294-.196.042h-.21Zm-4.872 2.1c.896.532 1.932 1.33 2.422 1.918l.742-.658c-.504-.574-1.554-1.358-2.45-1.848l-.714.588Zm-4.536-7.546v11.69h1.022v-11.69h-1.022Zm-2.296 2.786v.994h5.082v-.994h-5.082Zm2.352.378c-.504 1.736-1.624 3.92-2.632 5.04.182.238.434.672.532.966 1.078-1.302 2.198-3.752 2.758-5.726l-.658-.28Zm2.016-4.116c-1.022.476-2.87.868-4.452 1.134.126.238.266.574.322.812 1.624-.224 3.584-.616 4.872-1.134l-.742-.812Zm-1.092 5.544-.49.42c.434.49 1.484 1.82 1.82 2.394l.616-.826c-.28-.35-1.596-1.68-1.946-1.988Zm11.018 3.402v.798h6.384v-.798h-6.384Zm-.378-6.748v.812h6.986v-.812h-6.986Zm3.038-1.274v10.304h.966V86.374h-.966Zm-3.052 10.332.154.91c1.778-.182 4.312-.476 6.692-.756l-.014-.826c-2.506.266-5.124.518-6.832.672Zm1.302-4.928h4.536v1.036h-4.536v-1.036Zm0-1.708h4.536v1.008h-4.536V90.07Zm-.882-.728v4.2h6.314v-4.2h-6.314Zm5.81-3.962c-1.442.336-3.99.588-6.076.7.112.21.21.56.252.784 2.1-.07 4.704-.308 6.356-.672l-.532-.812Zm.672 3.136v.98h5.054v-.98h-5.054Zm4.648 0v.252c-.154 5.67-.308 7.686-.658 8.12-.126.182-.266.224-.49.224-.28 0-.896-.014-1.582-.07.168.28.28.714.308 1.008.644.042 1.316.042 1.708 0 .42-.042.7-.168.952-.532.462-.602.602-2.562.756-8.47 0-.14.014-.532.014-.532h-1.008Zm-2.954-3.094c-.014 5.292.056 9.73-3.15 12.026.252.168.616.504.784.756 3.346-2.506 3.36-7.21 3.374-12.782h-1.008ZM171.989 124.42h2.478v2.422h-2.478v-2.422Zm-1.582-1.47v5.348h5.74v-5.348h-5.74Zm-3.08-3.36v12.67h1.736v-10.962h8.456v10.962h1.82v-12.67h-12.012Zm.98 10.346v1.568h10.248v-1.568h-10.248Zm19.432-9.856v1.596h5.6v-1.596h-5.6Zm-.546 3.934v1.582h6.65v-1.582h-6.65Zm1.75.882c-.182 1.778-.616 4.144-1.036 5.642l1.512.336c.448-1.442.966-3.682 1.33-5.656l-1.806-.322Zm-2.114 5.376.294 1.652c1.638-.154 3.836-.35 5.908-.574v-1.498c-2.268.168-4.662.322-6.202.42Zm4.172-2.562c.686 1.414 1.316 3.29 1.498 4.522l1.54-.63c-.238-1.232-.868-3.052-1.61-4.466l-1.428.574Zm-10.038-7.266v1.442h6.118v-1.442h-6.118Zm-.196 8.12v1.47h6.412v-1.47h-6.412Zm2.492-9.436v4.088h1.568v-4.088h-1.568Zm.154 4.088v3.892h-.154v5.138h1.554v-5.138h-.168v-3.892h-1.232Zm-.868 2.534h3.024v.84h-3.024v-.84Zm0-1.918h3.024v.826h-3.024v-.826Zm-1.274-1.162v5.082h5.642v-5.082h-5.642Zm20.062.728c.56 0 1.05-.42 1.05-1.05 0-.644-.49-1.064-1.05-1.064-.574 0-1.064.42-1.064 1.064 0 .63.49 1.05 1.064 1.05Zm0 6.846c.56 0 1.05-.406 1.05-1.05s-.49-1.05-1.05-1.05c-.574 0-1.064.406-1.064 1.05s.49 1.05 1.064 1.05Zm15.862-10.934v2.772h1.036v-2.772h-1.036Zm-2.968 2.352v.966h7.35v-.966h-7.35Zm-.462 0v3.192c0 1.988-.154 4.732-1.568 6.678.224.112.658.392.84.574 1.498-2.058 1.75-5.124 1.75-7.252v-3.192h-1.022Zm3.374 1.862c-.336 2.142-1.022 5.152-1.624 6.986l.924.21c.616-1.82 1.33-4.732 1.792-7.014l-1.092-.182Zm-2.674 6.748.182.994c1.61-.154 3.906-.378 6.09-.602l-.028-.924c-2.31.21-4.704.42-6.244.532Zm4.326-3.374c.924 1.666 1.848 3.85 2.128 5.208l.966-.364c-.308-1.358-1.246-3.514-2.212-5.166l-.882.322Zm-10.08-.21.238 1.036c1.246-.378 2.856-.882 4.382-1.358l-.126-.938c-1.652.476-3.36.98-4.494 1.26Zm.238-4.62v.98h4.27v-.98h-4.27Zm1.904-2.814v11.592c0 .21-.084.266-.266.266-.168.014-.756.014-1.386-.014.14.294.28.756.322 1.022.91 0 1.484-.028 1.848-.21.364-.168.49-.462.49-1.064v-11.592h-1.008Zm12.348 4.018v1.064h12.306v-1.064h-12.306Zm6.818.42-1.05.252c1.05 3.766 2.954 6.72 5.978 8.148.182-.294.532-.742.798-.98-2.912-1.204-4.816-4.032-5.726-7.42Zm-1.232-4.438c-.028 3.36.084 9.394-5.866 11.984.294.21.63.588.798.868 6.118-2.8 6.146-9.184 6.202-12.852h-1.134Zm16.31-.028v1.862h1.05v-1.862h-1.05Zm1.386 4.144a16.86 16.86 0 0 1-.49 2.422l.882.196c.21-.63.448-1.568.672-2.422l-1.064-.196Zm-4.662-2.772v2.324h.952v-1.428h5.782v1.232h.98v-2.128h-7.714Zm1.61 1.89c-.35 1.484-1.106 3.332-2.128 4.494.182.182.448.504.574.7 1.148-1.288 2.002-3.262 2.478-4.97l-.924-.224Zm.91.574v.868h5.292v-.868h-5.292Zm.784 4.886v.854h3.682v-.854h-3.682Zm0 2.688v.854h3.682v-.854h-3.682Zm-.49-5.278v6.748h.896v-5.894h2.856v5.824h.938v-6.678h-4.69Zm-5.558-6.104c-.35.924-.994 2.296-1.484 3.108l.7.308c.518-.784 1.176-2.044 1.68-3.08l-.896-.336Zm1.484 1.596c-.728 1.47-1.988 3.556-2.982 4.802l.63.336c1.008-1.204 2.296-3.192 3.22-4.746l-.868-.392Zm-3.724 1.302c.742.7 1.582 1.694 1.932 2.366l.588-.77c-.364-.63-1.218-1.582-1.96-2.268l-.56.672Zm3.262 1.82c.462.882.896 2.03 1.022 2.758l.784-.336c-.126-.728-.588-1.848-1.078-2.716l-.728.294Zm-3.374 1.47.112.938c1.218-.084 2.814-.182 4.396-.28v-.896a460.8 460.8 0 0 1-4.508.238Zm3.57 1.974c.322.812.588 1.876.658 2.576l.784-.252c-.07-.686-.364-1.736-.7-2.548l-.742.224Zm-2.73-.168c-.154 1.218-.42 2.478-.868 3.332.21.084.616.266.784.392.434-.896.77-2.254.952-3.57l-.868-.154Zm1.414-1.4v6.272h.91v-6.272h-.91Zm3.668-.588v6.86h.882v-7.658l-.042-.028-.84.826Zm14.168-5.81v11.214c0 .28-.098.378-.392.378-.28.014-1.288.028-2.324-.014.182.308.378.798.434 1.106 1.33 0 2.198-.028 2.702-.21.504-.168.714-.476.714-1.26V119.45h-1.134Zm3.388 3.57c1.19 2.002 2.324 4.634 2.66 6.286l1.12-.448c-.364-1.694-1.554-4.256-2.772-6.23l-1.008.392Zm-7.056-.294c-.35 1.89-1.12 4.312-2.366 5.796.28.112.742.364.994.56 1.274-1.568 2.086-4.102 2.548-6.16l-1.176-.196Z" fill="#000" fill-opacity=".45"/><path d="M98.668 182.857v38.896h-30.16c0-30.173 12.76-35.36 30.16-38.896Z" fill="#9D9D9D"/><path fill-rule="evenodd" clip-rule="evenodd" d="M98.648 180.503c.156-.002.312-.003.469-.003 10.55 0 18.369 4.547 23.531 10.302 5.113 5.701 7.685 12.667 7.685 17.672v39.052c0 4.593-2.788 11.554-7.954 17.329-5.223 5.837-13.034 10.645-23.262 10.645-10.195 0-18.222-4.549-23.68-10.267C70.035 259.571 67 252.598 67 247.526v-39.052c0-5.007 2.788-11.912 8.039-17.569 5.3-5.71 13.215-10.268 23.609-10.402Zm1.527 3.078v36.126h27.142v-11.233c0-4.112-2.199-10.368-6.898-15.608-4.479-4.994-11.169-8.995-20.244-9.285Zm27.142 39.191H70.016v24.754c0 4.045 2.548 10.294 7.587 15.573 4.986 5.224 12.263 9.336 21.514 9.336 9.217 0 16.26-4.31 21.03-9.642 4.827-5.395 7.17-11.654 7.17-15.267v-24.754Zm-57.301-3.065h27.143v-36.085c-8.724.52-15.377 4.485-19.926 9.386-4.862 5.237-7.217 11.424-7.217 15.466v11.233Z" fill="#444"/><path d="M94.027 208.188v-9.879c0-1.796 1.67-4.49 4.641-4.49s4.639 2.694 4.639 4.49v9.879c0 1.796-.926 4.49-4.639 4.49s-4.639-2.694-4.64-4.49Z" fill="#444"/><path fill-rule="evenodd" clip-rule="evenodd" d="M94.108 194.37c1.033-1.177 2.586-2.084 4.56-2.084 1.973 0 3.525.907 4.558 2.084 1.001 1.14 1.588 2.615 1.588 3.939v9.878c0 1.126-.284 2.619-1.25 3.866-1.017 1.313-2.638 2.156-4.897 2.156-2.258 0-3.88-.843-4.897-2.156-.965-1.246-1.25-2.739-1.251-3.865v-9.879c0-1.324.587-2.8 1.588-3.939Zm2.25 2.04c-.577.656-.824 1.426-.824 1.899v9.877c.001.67.18 1.422.606 1.971.375.484 1.073.988 2.527.988 1.454 0 2.152-.504 2.527-.987.425-.55.604-1.301.604-1.971v-9.878c0-.473-.246-1.243-.822-1.899-.544-.619-1.31-1.059-2.309-1.059-.998 0-1.766.44-2.31 1.059Z" fill="#444"/><path d="M170.715 231.67c0 .546-.042 1.4-.14 1.946h2.198a21.719 21.719 0 0 1-.126-1.946c0-1.036-.014-6.51-.014-8.05 0-.588.07-1.19.126-1.694h-2.184c.098.504.14 1.19.14 1.694v8.05Zm1.512-6.118v2.016c1.526.504 3.878 1.4 5.474 2.226l.784-1.946c-1.372-.672-4.396-1.778-6.258-2.296Zm11.228-3.29v1.82c.406-.042.994-.056 1.456-.056h5.348c.518 0 1.176.028 1.54.056v-1.82c-.378.056-1.064.084-1.512.084h-5.376c-.476 0-1.078-.028-1.456-.084Zm9.534 4.074-1.246-.784c-.196.098-.574.154-1.036.154h-6.916c-.448 0-1.036-.042-1.638-.098v1.82a26.146 26.146 0 0 1 1.638-.056h6.748a5.987 5.987 0 0 1-1.428 2.408c-1.078 1.106-2.744 2.016-4.858 2.464l1.4 1.582c1.792-.518 3.584-1.456 4.998-3.038 1.036-1.148 1.638-2.52 2.072-3.878a4.01 4.01 0 0 1 .266-.574Zm8.4-1.638-1.652.546c.336.728.952 2.422 1.134 3.094l1.666-.574c-.196-.644-.882-2.478-1.148-3.066Zm5.166 1.008-1.96-.63c-.154 1.764-.84 3.626-1.792 4.802-1.148 1.456-3.108 2.52-4.634 2.94l1.47 1.498a10.934 10.934 0 0 0 4.676-3.486c.952-1.218 1.554-2.674 1.918-4.088.084-.28.168-.574.322-1.036Zm-8.414-.28-1.68.616c.336.602 1.05 2.478 1.274 3.22l1.708-.63c-.266-.784-.952-2.492-1.302-3.206Zm21.098-3.892-1.12.462c.378.532.812 1.372 1.106 1.946l1.12-.49c-.266-.518-.756-1.4-1.106-1.918Zm1.652-.63-1.106.462c.378.518.826 1.344 1.12 1.918l1.12-.476c-.252-.49-.77-1.372-1.134-1.904Zm-.406 3.71-1.428-.882c-.322.112-.784.168-1.218.168h-4.004l-.644 1.596h4.718c-.224 1.036-1.036 2.716-1.988 3.808-1.218 1.386-2.772 2.604-5.642 3.472l1.652 1.47c2.632-1.036 4.326-2.324 5.656-3.948 1.26-1.554 2.058-3.43 2.436-4.676.112-.35.308-.728.462-1.008Zm-4.564-2.212-2.044-.672a6.454 6.454 0 0 1-.63 1.47c-.7 1.204-1.918 3.01-4.382 4.508l1.582 1.162c2.002-1.372 3.682-3.346 4.62-5.04.168-.294.532-.938.854-1.428Zm13.412 2.996c.56 0 1.05-.42 1.05-1.05 0-.644-.49-1.064-1.05-1.064-.574 0-1.064.42-1.064 1.064 0 .63.49 1.05 1.064 1.05Zm0 6.846c.56 0 1.05-.406 1.05-1.05s-.49-1.05-1.05-1.05c-.574 0-1.064.406-1.064 1.05s.49 1.05 1.064 1.05Zm8.806 0v1.008h10.374v-1.008h-10.374Zm-1.008-10.08v.994h12.39v-.994h-12.39Zm.434 2.394v9.562h1.022v-9.562h-1.022Zm10.528 0v9.52h1.036v-9.52h-1.036Zm-5.348-2.086v2.702h1.064v-2.702h-1.064Zm.07 2.618v5.544h.924v-5.544h-.924Zm-2.002 3.192h4.942v1.834h-4.942v-1.834Zm0-2.674h4.942v1.82h-4.942v-1.82Zm-.896-.896v6.3h6.762v-6.3h-6.762Zm15.386 2.758v.868h3.836v-.868h-3.836Zm0 2.436v.868h3.878v-.868h-3.878Zm-2.884 2.506v.98h9.884v-.98h-9.884Zm-.644-7.476v9.198h1.022v-8.218h9.016v8.218h1.064v-9.198h-11.102Zm3.038.616v7.308h.952v-7.308h-.952Zm3.92 0v7.266h.966v-7.266h-.966Zm-2.1-2.912c-.098.812-.378 1.974-.602 2.73l.952.266c.28-.7.574-1.778.868-2.716l-1.218-.28Zm-5.488-.462v1.008h12.404v-1.008h-12.404Zm22.176-.924c-.616 1.078-1.834 2.324-3.584 3.206.224.154.532.49.672.714 1.89-1.036 3.15-2.38 3.962-3.738l-1.05-.182Zm-.336 1.218-.616.868h4.018v-.868h-3.402Zm3.038 0v.168c-.924 2.45-3.444 4.032-6.034 4.662.182.21.448.602.546.854 2.814-.812 5.432-2.478 6.538-5.418l-.672-.322-.182.056h-.196Zm-4.494 1.862c.756.476 1.68 1.218 2.1 1.722l.7-.588c-.448-.518-1.358-1.218-2.128-1.666l-.672.532Zm2.534 2.184c-.686 1.232-2.086 2.632-4.144 3.598.224.154.532.49.672.728 2.184-1.12 3.64-2.618 4.536-4.144l-1.064-.182Zm-.392 1.33-.63.896h3.976v-.896h-3.346Zm3.038 0v.168c-.994 2.996-3.85 4.62-7.014 5.222.182.224.42.63.532.896 3.388-.77 6.37-2.492 7.56-6.034l-.672-.294-.196.042h-.21Zm-4.872 2.1c.896.532 1.932 1.33 2.422 1.918l.742-.658c-.504-.574-1.554-1.358-2.45-1.848l-.714.588Zm-4.536-7.546v11.69h1.022v-11.69h-1.022Zm-2.296 2.786v.994h5.082v-.994h-5.082Zm2.352.378c-.504 1.736-1.624 3.92-2.632 5.04.182.238.434.672.532.966 1.078-1.302 2.198-3.752 2.758-5.726l-.658-.28Zm2.016-4.116c-1.022.476-2.87.868-4.452 1.134.126.238.266.574.322.812 1.624-.224 3.584-.616 4.872-1.134l-.742-.812Zm-1.092 5.544-.49.42c.434.49 1.484 1.82 1.82 2.394l.616-.826c-.28-.35-1.596-1.68-1.946-1.988Zm11.018 3.402v.798h6.384v-.798h-6.384Zm-.378-6.748v.812h6.986v-.812h-6.986Zm3.038-1.274v10.304h.966v-10.304h-.966Zm-3.052 10.332.154.91c1.778-.182 4.312-.476 6.692-.756l-.014-.826c-2.506.266-5.124.518-6.832.672Zm1.302-4.928h4.536v1.036h-4.536v-1.036Zm0-1.708h4.536v1.008h-4.536v-1.008Zm-.882-.728v4.2h6.314v-4.2h-6.314Zm5.81-3.962c-1.442.336-3.99.588-6.076.7.112.21.21.56.252.784 2.1-.07 4.704-.308 6.356-.672l-.532-.812Zm.672 3.136v.98h5.054v-.98h-5.054Zm4.648 0v.252c-.154 5.67-.308 7.686-.658 8.12-.126.182-.266.224-.49.224-.28 0-.896-.014-1.582-.07.168.28.28.714.308 1.008.644.042 1.316.042 1.708 0 .42-.042.7-.168.952-.532.462-.602.602-2.562.756-8.47 0-.14.014-.532.014-.532h-1.008Zm-2.954-3.094c-.014 5.292.056 9.73-3.15 12.026.252.168.616.504.784.756 3.346-2.506 3.36-7.21 3.374-12.782h-1.008Z" fill="#000" fill-opacity=".45"/><path d="M99.477 301.857v38.896h30.155c0-30.173-12.758-35.36-30.156-38.896Z" fill="#9D9D9D"/><path fill-rule="evenodd" clip-rule="evenodd" d="M98.644 299.503c.156-.002.312-.003.47-.003 10.549 0 18.367 4.547 23.528 10.302 5.112 5.701 7.684 12.667 7.684 17.672v39.052c0 4.593-2.788 11.554-7.953 17.329-5.222 5.837-13.032 10.645-23.26 10.645-10.194 0-18.22-4.549-23.676-10.267C70.034 378.571 67 371.598 67 366.526v-39.052c0-5.007 2.788-11.912 8.038-17.569 5.3-5.71 13.214-10.268 23.606-10.402Zm1.527 3.078v36.126h27.14v-11.233c0-4.112-2.199-10.368-6.898-15.608-4.479-4.994-11.168-8.995-20.242-9.285Zm27.14 39.191H70.015v24.754c0 4.045 2.548 10.294 7.587 15.573 4.985 5.224 12.262 9.336 21.511 9.336 9.216 0 16.259-4.31 21.028-9.642 4.827-5.395 7.17-11.654 7.17-15.267v-24.754Zm-57.296-3.065h27.14v-36.085c-8.722.52-15.375 4.485-19.924 9.386-4.86 5.237-7.215 11.424-7.215 15.466v11.233Z" fill="#444"/><path d="M94.022 327.189v-9.879c0-1.796 1.67-4.49 4.64-4.49 2.972 0 4.639 2.694 4.639 4.49v9.879c0 1.796-.926 4.49-4.638 4.49-3.712 0-4.639-2.694-4.64-4.49Z" fill="#444"/><path fill-rule="evenodd" clip-rule="evenodd" d="M94.105 313.37c1.034-1.177 2.586-2.084 4.56-2.084 1.973 0 3.525.907 4.558 2.084 1.001 1.14 1.588 2.615 1.588 3.939v9.878c0 1.126-.285 2.619-1.25 3.866-1.017 1.313-2.638 2.156-4.897 2.156-2.258 0-3.879-.843-4.896-2.156-.965-1.246-1.25-2.739-1.251-3.865v-9.879c0-1.324.587-2.8 1.588-3.939Zm2.25 2.04c-.576.656-.823 1.426-.823 1.899v9.877c0 .67.18 1.422.606 1.971.374.484 1.073.988 2.526.988 1.454 0 2.153-.504 2.527-.987.425-.55.604-1.301.604-1.971v-9.878c0-.473-.246-1.243-.822-1.899-.543-.619-1.31-1.059-2.308-1.059-.999 0-1.766.44-2.31 1.059Z" fill="#444"/><path d="M170.708 350.67c0 .546-.042 1.4-.14 1.946h2.198a21.719 21.719 0 0 1-.126-1.946c0-1.036-.014-6.51-.014-8.05 0-.588.07-1.19.126-1.694h-2.184c.098.504.14 1.19.14 1.694v8.05Zm1.512-6.118v2.016c1.526.504 3.878 1.4 5.474 2.226l.784-1.946c-1.372-.672-4.396-1.778-6.258-2.296Zm11.228-3.29v1.82c.406-.042.994-.056 1.456-.056h5.348c.518 0 1.176.028 1.54.056v-1.82c-.378.056-1.064.084-1.512.084h-5.376c-.476 0-1.078-.028-1.456-.084Zm9.534 4.074-1.246-.784c-.196.098-.574.154-1.036.154h-6.916c-.448 0-1.036-.042-1.638-.098v1.82a26.146 26.146 0 0 1 1.638-.056h6.748a5.987 5.987 0 0 1-1.428 2.408c-1.078 1.106-2.744 2.016-4.858 2.464l1.4 1.582c1.792-.518 3.584-1.456 4.998-3.038 1.036-1.148 1.638-2.52 2.072-3.878a4.01 4.01 0 0 1 .266-.574Zm8.4-1.638-1.652.546c.336.728.952 2.422 1.134 3.094l1.666-.574c-.196-.644-.882-2.478-1.148-3.066Zm5.166 1.008-1.96-.63c-.154 1.764-.84 3.626-1.792 4.802-1.148 1.456-3.108 2.52-4.634 2.94l1.47 1.498a10.934 10.934 0 0 0 4.676-3.486c.952-1.218 1.554-2.674 1.918-4.088.084-.28.168-.574.322-1.036Zm-8.414-.28-1.68.616c.336.602 1.05 2.478 1.274 3.22l1.708-.63c-.266-.784-.952-2.492-1.302-3.206Zm21.098-3.892-1.12.462c.378.532.812 1.372 1.106 1.946l1.12-.49c-.266-.518-.756-1.4-1.106-1.918Zm1.652-.63-1.106.462c.378.518.826 1.344 1.12 1.918l1.12-.476c-.252-.49-.77-1.372-1.134-1.904Zm-.406 3.71-1.428-.882c-.322.112-.784.168-1.218.168h-4.004l-.644 1.596h4.718c-.224 1.036-1.036 2.716-1.988 3.808-1.218 1.386-2.772 2.604-5.642 3.472l1.652 1.47c2.632-1.036 4.326-2.324 5.656-3.948 1.26-1.554 2.058-3.43 2.436-4.676.112-.35.308-.728.462-1.008Zm-4.564-2.212-2.044-.672a6.454 6.454 0 0 1-.63 1.47c-.7 1.204-1.918 3.01-4.382 4.508l1.582 1.162c2.002-1.372 3.682-3.346 4.62-5.04.168-.294.532-.938.854-1.428Zm13.412 2.996c.56 0 1.05-.42 1.05-1.05 0-.644-.49-1.064-1.05-1.064-.574 0-1.064.42-1.064 1.064 0 .63.49 1.05 1.064 1.05Zm0 6.846c.56 0 1.05-.406 1.05-1.05s-.49-1.05-1.05-1.05c-.574 0-1.064.406-1.064 1.05s.49 1.05 1.064 1.05Zm15.862-10.934v2.772h1.036v-2.772h-1.036Zm-2.968 2.352v.966h7.35v-.966h-7.35Zm-.462 0v3.192c0 1.988-.154 4.732-1.568 6.678.224.112.658.392.84.574 1.498-2.058 1.75-5.124 1.75-7.252v-3.192h-1.022Zm3.374 1.862c-.336 2.142-1.022 5.152-1.624 6.986l.924.21c.616-1.82 1.33-4.732 1.792-7.014l-1.092-.182Zm-2.674 6.748.182.994c1.61-.154 3.906-.378 6.09-.602l-.028-.924c-2.31.21-4.704.42-6.244.532Zm4.326-3.374c.924 1.666 1.848 3.85 2.128 5.208l.966-.364c-.308-1.358-1.246-3.514-2.212-5.166l-.882.322Zm-10.08-.21.238 1.036c1.246-.378 2.856-.882 4.382-1.358l-.126-.938c-1.652.476-3.36.98-4.494 1.26Zm.238-4.62v.98h4.27v-.98h-4.27Zm1.904-2.814v11.592c0 .21-.084.266-.266.266-.168.014-.756.014-1.386-.014.14.294.28.756.322 1.022.91 0 1.484-.028 1.848-.21.364-.168.49-.462.49-1.064v-11.592h-1.008Zm12.348 4.018v1.064H263.5v-1.064h-12.306Zm6.818.42-1.05.252c1.05 3.766 2.954 6.72 5.978 8.148.182-.294.532-.742.798-.98-2.912-1.204-4.816-4.032-5.726-7.42Zm-1.232-4.438c-.028 3.36.084 9.394-5.866 11.984.294.21.63.588.798.868 6.118-2.8 6.146-9.184 6.202-12.852h-1.134Zm16.31-.028v1.862h1.05v-1.862h-1.05Zm1.386 4.144a16.86 16.86 0 0 1-.49 2.422l.882.196c.21-.63.448-1.568.672-2.422l-1.064-.196Zm-4.662-2.772v2.324h.952v-1.428h5.782v1.232h.98v-2.128h-7.714Zm1.61 1.89c-.35 1.484-1.106 3.332-2.128 4.494.182.182.448.504.574.7 1.148-1.288 2.002-3.262 2.478-4.97l-.924-.224Zm.91.574v.868h5.292v-.868h-5.292Zm.784 4.886v.854h3.682v-.854h-3.682Zm0 2.688v.854h3.682v-.854h-3.682Zm-.49-5.278v6.748h.896v-5.894h2.856v5.824h.938v-6.678h-4.69Zm-5.558-6.104c-.35.924-.994 2.296-1.484 3.108l.7.308c.518-.784 1.176-2.044 1.68-3.08l-.896-.336Zm1.484 1.596c-.728 1.47-1.988 3.556-2.982 4.802l.63.336c1.008-1.204 2.296-3.192 3.22-4.746l-.868-.392Zm-3.724 1.302c.742.7 1.582 1.694 1.932 2.366l.588-.77c-.364-.63-1.218-1.582-1.96-2.268l-.56.672Zm3.262 1.82c.462.882.896 2.03 1.022 2.758l.784-.336c-.126-.728-.588-1.848-1.078-2.716l-.728.294Zm-3.374 1.47.112.938c1.218-.084 2.814-.182 4.396-.28v-.896a460.8 460.8 0 0 1-4.508.238Zm3.57 1.974c.322.812.588 1.876.658 2.576l.784-.252c-.07-.686-.364-1.736-.7-2.548l-.742.224Zm-2.73-.168c-.154 1.218-.42 2.478-.868 3.332.21.084.616.266.784.392.434-.896.77-2.254.952-3.57l-.868-.154Zm1.414-1.4v6.272h.91v-6.272h-.91Zm3.668-.588v6.86h.882v-7.658l-.042-.028-.84.826Zm14.168-5.81v11.214c0 .28-.098.378-.392.378-.28.014-1.288.028-2.324-.014.182.308.378.798.434 1.106 1.33 0 2.198-.028 2.702-.21.504-.168.714-.476.714-1.26V340.45h-1.134Zm3.388 3.57c1.19 2.002 2.324 4.634 2.66 6.286l1.12-.448c-.364-1.694-1.554-4.256-2.772-6.23l-1.008.392Zm-7.056-.294c-.35 1.89-1.12 4.312-2.366 5.796.28.112.742.364.994.56 1.274-1.568 2.086-4.102 2.548-6.16l-1.176-.196Z" fill="#000" fill-opacity=".45"/><path d="M411.248 48.32v1.328c.416-.032.928-.064 1.472-.064h5.52c.448 0 1.008.032 1.488.064V48.32c-.464.048-1.04.08-1.488.08h-5.552c-.512 0-.992-.032-1.44-.08Zm-1.904 4.016v1.328a19.22 19.22 0 0 1 1.392-.048H421.2c.4 0 .912.016 1.264.048v-1.328c-.4.048-.928.08-1.264.08h-10.464c-.496 0-.96-.032-1.392-.08Zm7.536.64-1.344.016c-.016 1.76-.128 3.328-.928 4.592-.64 1.024-1.792 1.936-3.024 2.464l1.184.864c1.36-.688 2.56-1.84 3.152-2.912.704-1.344.96-3.008.96-5.024Zm3.68-5.968-.848.368c.432.608.976 1.568 1.28 2.208l.864-.384c-.32-.64-.896-1.616-1.296-2.192Zm1.744-.64-.832.368c.448.592.976 1.504 1.328 2.192l.848-.384a20.035 20.035 0 0 0-1.344-2.176Zm3.312 6.704v1.568c.512-.032 1.36-.064 2.24-.064h8.784c.704 0 1.376.048 1.712.064v-1.568c-.368.032-.928.096-1.728.096h-8.768c-.912 0-1.744-.048-2.24-.096Zm21.024-.4-.88.896c1.984 1.232 4.72 3.2 6.192 4.544l.944-1.12c-1.584-1.28-4.208-3.12-6.256-4.32Zm7.312-2.912-1.056-.64c-.256.096-.608.144-1.04.144h-5.088l-.512 1.152h5.92c-.368 1.488-1.376 3.52-2.608 4.992a13.767 13.767 0 0 1-6.592 4.304l1.136 1.008c3.04-1.12 5.12-2.832 6.576-4.624 1.408-1.728 2.416-3.856 2.896-5.488.08-.256.24-.624.368-.848Zm-5.392-2.32-1.456-.464a5.47 5.47 0 0 1-.512 1.264c-.736 1.472-2.384 3.872-5.12 5.584l1.056.816c2.56-1.76 4.368-4.176 5.312-5.936.16-.304.448-.848.72-1.264Zm16.448 1.648-1.328-.032c-.16 1.664-.496 3.472-.96 4.992-.816 2.704-1.68 3.792-2.432 3.792-.72 0-1.632-.896-1.632-2.912 0-2.352 2.192-5.248 5.712-5.248 3.072 0 4.848 2.112 4.848 4.672 0 2.768-2.016 4.304-4.064 4.768-.384.08-.864.144-1.376.192l.736 1.184c3.808-.496 6.016-2.736 6.016-6.08 0-3.248-2.384-5.888-6.128-5.888-3.92 0-7.008 3.024-7.008 6.496 0 2.656 1.424 4.288 2.864 4.288 1.472 0 2.752-1.696 3.728-4.976.496-1.712.816-3.584 1.024-5.248Zm11.168 3.792h-3.408V54h2.24v4.544h1.168V52.88Zm0 5.136h-1.088a29.873 29.873 0 0 1-2.528 1.904l.64 1.232a68.822 68.822 0 0 0 2.448-2.08c1.024 1.264 2.464 1.824 4.544 1.904 1.776.064 5.088.032 6.848-.032.048-.368.256-.944.384-1.232-1.888.128-5.488.176-7.232.112-1.84-.08-3.264-.624-4.016-1.808Zm-3.232-10.336c1.04.704 2.24 1.792 2.752 2.56l.944-.784c-.56-.784-1.76-1.824-2.816-2.496l-.88.72Zm5.6.56v1.008h5.936v2.16h-5.936v1.024h7.104V48.24h-7.104Zm2.608-1.728c-.128.624-.416 1.52-.656 2.128l1.104.24c.272-.544.624-1.36.928-2.144l-1.376-.224Zm-3.184 1.728v10.272h1.168V48.24h-1.168Zm.64 5.712v1.024h6.496v2.496h-6.496v1.04h7.68v-4.56h-7.68Zm19.072 4.752v1.168h4.352v-1.168h-4.352Zm-8.832-9.104v1.168h6.144V49.6h-6.144Zm8.288-1.04v12.48h1.168V49.712h3.088v11.216h1.216V48.56h-5.472Zm-2.464 1.04v.288c-.112 6.848-.256 9.216-.624 9.712-.144.208-.288.256-.528.24-.304 0-.992 0-1.744-.064.208.336.336.864.352 1.216.72.048 1.456.048 1.904-.016.48-.048.768-.192 1.056-.608.512-.704.624-3.04.752-10.16V49.6h-1.168Zm-3.552-2.816c-.016 5.6 0 10.88-2.672 13.696.304.176.72.544.928.816 2.816-3.056 2.896-8.608 2.912-14.512h-1.168Z" fill="#000" fill-opacity=".85"/><path d="M413.096 97.452c.896 1.036 1.806 2.478 2.17 3.444l1.008-.546c-.406-.952-1.302-2.338-2.24-3.36l-.938.462Zm-4.606 8.064.378 1.092c1.554-.672 3.682-1.61 5.628-2.506l-.238-1.022c-2.1.924-4.34 1.876-5.768 2.436Zm8.4-1.848c1.344 1.372 3.024 3.262 3.808 4.424l.896-.826c-.826-1.148-2.562-2.968-3.892-4.284l-.812.686Zm1.946-7.7c-.63 6.09-2.114 9.52-6.958 11.284.266.224.686.686.84.91 4.9-2.044 6.538-5.614 7.252-12.082l-1.134-.112Zm-8.638.042.238 9.254 1.078-.042-.238-9.254-1.078.042Zm12.572.266v1.064h12.46v-1.064h-12.46Zm5.39.84v10.99h1.106v-10.99h-1.106Zm.616 3.318c1.694.868 3.878 2.198 4.956 3.066l.742-.952c-1.12-.84-3.332-2.114-5.012-2.926l-.686.812Zm15.106-2.982-1.162-.028c-.14 1.456-.434 3.038-.84 4.368-.714 2.366-1.47 3.318-2.128 3.318-.63 0-1.428-.784-1.428-2.548 0-2.058 1.918-4.592 4.998-4.592 2.688 0 4.242 1.848 4.242 4.088 0 2.422-1.764 3.766-3.556 4.172-.336.07-.756.126-1.204.168l.644 1.036c3.332-.434 5.264-2.394 5.264-5.32 0-2.842-2.086-5.152-5.362-5.152-3.43 0-6.132 2.646-6.132 5.684 0 2.324 1.246 3.752 2.506 3.752 1.288 0 2.408-1.484 3.262-4.354.434-1.498.714-3.136.896-4.592Zm16.632-1.512-.742.322c.378.532.826 1.33 1.106 1.89l.756-.336c-.28-.56-.77-1.372-1.12-1.876Zm1.652-.392-.728.322c.392.518.826 1.26 1.134 1.876l.756-.336a16.91 16.91 0 0 0-1.162-1.862Zm-4.592.672h-1.302c.042.21.098.686.098.994v2.604c0 .658 0 5.446-.014 6.202 0 .378-.154.532-.532.532a9.851 9.851 0 0 1-1.624-.154l.098 1.106c.574.07 1.4.098 1.988.098.854 0 1.204-.378 1.204-1.106v-9.282c0-.294.056-.798.084-.994Zm-6.286 2.352v1.19c.364-.042.756-.056 1.19-.056h8.736c.336 0 .756.014 1.12.042v-1.162c-.35.042-.812.07-1.134.07h-8.736a7.88 7.88 0 0 1-1.176-.084Zm3.22 3.304-.994-.476c-.546 1.134-1.736 2.8-2.674 3.654l.966.658c.798-.854 2.1-2.646 2.702-3.836Zm5.838-.476-.952.518c.742.882 1.792 2.618 2.352 3.724l1.022-.574c-.56-1.022-1.666-2.772-2.422-3.668Zm9.464-.812-.77.784c1.736 1.078 4.13 2.8 5.418 3.976l.826-.98c-1.386-1.12-3.682-2.73-5.474-3.78Zm6.398-2.548-.924-.56c-.224.084-.532.126-.91.126h-4.452l-.448 1.008h5.18c-.322 1.302-1.204 3.08-2.282 4.368a12.047 12.047 0 0 1-5.768 3.766l.994.882c2.66-.98 4.48-2.478 5.754-4.046 1.232-1.512 2.114-3.374 2.534-4.802a4.4 4.4 0 0 1 .322-.742Zm-4.718-2.03-1.274-.406a4.786 4.786 0 0 1-.448 1.106c-.644 1.288-2.086 3.388-4.48 4.886l.924.714c2.24-1.54 3.822-3.654 4.648-5.194.14-.266.392-.742.63-1.106Zm9.688.742-.812.854c1.05.686 2.786 2.198 3.5 2.926l.868-.896c-.77-.77-2.576-2.226-3.556-2.884Zm-1.204 9.38.728 1.148c2.338-.434 4.102-1.302 5.516-2.184a14.021 14.021 0 0 0 4.69-4.97l-.672-1.204c-.812 1.736-2.506 3.808-4.676 5.166-1.33.826-3.15 1.68-5.586 2.044Zm13.118-8.344.126 1.232c1.512-.322 5.082-.672 6.58-.826-1.274.756-2.604 2.548-2.604 4.718 0 3.136 2.94 4.508 5.53 4.606l.406-1.148c-2.268-.084-4.83-.966-4.83-3.696 0-1.652 1.218-3.794 3.22-4.438.714-.196 1.932-.224 2.744-.21l-.014-1.12c-.938.028-2.24.112-3.78.238-2.576.224-5.222.476-6.118.574-.28.028-.728.056-1.26.07Zm9.142 1.946-.7.308c.42.588.812 1.302 1.134 1.974l.728-.322c-.308-.63-.84-1.498-1.162-1.96Zm1.526-.588-.686.322c.434.588.854 1.288 1.19 1.96l.714-.35a16.428 16.428 0 0 0-1.218-1.932Zm6.622-.938v.854h9.058v-.854h-9.058Zm.826 3.78v.798h7.308v-.798h-7.308Zm-.63 1.918v.868h8.554v-.868h-8.554Zm3.682-8.554v10.906h1.022V95.352h-1.022Zm-2.87 1.022v.84h5.964v2.884h-6.062v.84h7.098v-4.564h-7Zm-4.816-.238v.938h3.024v-.938h-3.024Zm2.646 0v.126a93.27 93.27 0 0 1-2.464 5.082l.952.266c.854-1.666 1.904-3.836 2.548-5.306l-.714-.224-.168.056h-.154Zm-1.372 3.99-.126.938h2.422v-.938h-2.296Zm1.862 0v.21c-.35 3.612-1.47 5.894-3.248 7.084.238.14.63.518.798.728 1.82-1.316 3.038-3.822 3.458-7.896l-.602-.154-.196.028h-.21Zm-1.82 2.058-.84.322c1.358 4.396 4.06 5.25 8.106 5.25h3.948c.07-.308.266-.784.434-1.022-.742.014-3.766.014-4.354.014-3.556 0-6.16-.7-7.294-4.564Zm19.586-6.944c-.476 2.128-1.302 4.144-2.478 5.404.224.14.644.448.812.602 1.176-1.386 2.1-3.514 2.618-5.81l-.952-.196Zm4.83 2.352v.252c-.294 6.146-.616 8.372-1.078 8.904-.168.182-.308.238-.532.238-.266 0-.84-.014-1.47-.07.168.28.266.728.294 1.036.616.042 1.232.056 1.596 0 .434-.042.7-.168.98-.546.574-.686.868-2.884 1.19-9.268.014-.154.014-.546.014-.546h-.994Zm-4.928 0-.448.994h5.796v-.994h-5.348Zm1.414.308c-.574 2.45-1.918 5.166-3.556 6.454.28.154.616.406.826.616 1.596-1.386 2.926-4.186 3.528-6.664l-.798-.406Zm2.002.084c-.672 3.724-2.226 7.518-4.676 9.268.308.154.686.42.896.644 2.352-1.89 3.92-5.754 4.62-9.52l-.84-.392Zm-10.304 5.026.28 1.022c1.414-.448 3.304-1.036 5.082-1.596l-.14-.924c-1.904.574-3.906 1.162-5.222 1.498Zm2.618-7.756v12.866h.98V95.254h-.98Zm-1.736.798c-.168 1.722-.448 3.5-.98 4.69.224.098.63.336.798.462.532-1.246.882-3.136 1.092-4.998l-.91-.154Zm.084 2.058-.168 1.022h4.242V98.11h-4.074Zm20.3.014.798-.63c-.518-.546-1.582-1.428-2.044-1.792l-.798.574c.588.448 1.512 1.302 2.044 1.848Zm-4.452-1.218-1.134.462c.224.28.504.728.672 1.008.476.798 1.106 2.156 1.764 3.626.798 1.834 1.47 4.074 1.904 5.74l1.204-.322c-.476-1.554-1.372-4.144-2.128-5.894-.574-1.274-1.246-2.688-1.792-3.668-.14-.266-.378-.714-.49-.952Zm-2.478 4.088.546 1.148c1.764-.77 5.908-3.192 8.246-3.192 1.372 0 2.03.77 2.03 1.596 0 .994-.63 1.848-2.17 1.848-.742 0-1.442-.21-1.988-.462l-.028 1.106a6.306 6.306 0 0 0 2.1.392c2.184 0 3.206-1.218 3.206-2.842 0-1.526-1.176-2.618-3.122-2.618-2.324 0-5.726 1.904-7.672 2.646-.252.112-.742.28-1.148.378Zm16.016-4.214v1.162c.364-.028.812-.056 1.288-.056h4.83c.392 0 .882.028 1.302.056V96.78c-.406.042-.91.07-1.302.07h-4.858c-.448 0-.868-.028-1.26-.07Zm-1.666 3.514v1.162c.378-.028.798-.042 1.218-.042h9.156c.35 0 .798.014 1.106.042v-1.162c-.35.042-.812.07-1.106.07h-9.156c-.434 0-.84-.028-1.218-.07Zm6.594.56-1.176.014c-.014 1.54-.112 2.912-.812 4.018-.56.896-1.568 1.694-2.646 2.156l1.036.756c1.19-.602 2.24-1.61 2.758-2.548.616-1.176.84-2.632.84-4.396Zm3.22-5.222-.742.322c.378.532.854 1.372 1.12 1.932l.756-.336c-.28-.56-.784-1.414-1.134-1.918Zm1.526-.56-.728.322c.392.518.854 1.316 1.162 1.918l.742-.336a17.53 17.53 0 0 0-1.176-1.904Zm2.898 5.866v1.372c.448-.028 1.19-.056 1.96-.056h7.686c.616 0 1.204.042 1.498.056v-1.372c-.322.028-.812.084-1.512.084h-7.672c-.798 0-1.526-.042-1.96-.084Zm18.396-.35-.77.784c1.736 1.078 4.13 2.8 5.418 3.976l.826-.98c-1.386-1.12-3.682-2.73-5.474-3.78Zm6.398-2.548-.924-.56c-.224.084-.532.126-.91.126h-4.452l-.448 1.008h5.18c-.322 1.302-1.204 3.08-2.282 4.368a12.047 12.047 0 0 1-5.768 3.766l.994.882c2.66-.98 4.48-2.478 5.754-4.046 1.232-1.512 2.114-3.374 2.534-4.802a4.4 4.4 0 0 1 .322-.742Zm-4.718-2.03-1.274-.406a4.786 4.786 0 0 1-.448 1.106c-.644 1.288-2.086 3.388-4.48 4.886l.924.714c2.24-1.54 3.822-3.654 4.648-5.194.14-.266.392-.742.63-1.106Zm12.95-.07-1.148-.098c-.042.658-.238 1.498-.546 2.268-.476 1.19-1.414 2.814-3.43 4.746l.966.714c.462-.574.854-1.078 1.26-1.47.644-.574 1.526-1.022 2.422-1.022.728 0 1.288.378 1.302 1.19.014.728 0 2.17-.056 2.912h1.078c-.014-.868-.042-2.478-.042-3.206 0-1.134-.84-1.778-1.918-1.778-.616 0-1.414.196-1.96.518.56-.728 1.078-1.666 1.428-2.52.364-.938.518-1.708.644-2.254Zm-4.802 1.512v1.05c.784.056 1.708.084 2.31.084 1.778 0 4.382-.126 6.342-.42V97.13c-1.974.35-4.396.462-6.286.462-.644 0-1.61-.042-2.366-.14Zm10.696 3.374-.448-1.036c-.392.196-.742.35-1.162.546-.924.434-2.058.868-3.388 1.554-1.666.854-3.402 1.904-3.402 3.612 0 1.694 1.61 2.128 3.598 2.128a36.39 36.39 0 0 0 3.836-.238l.042-1.134c-1.232.224-2.744.35-3.836.35-1.442 0-2.52-.168-2.52-1.26 0-.966.98-1.722 2.366-2.45 1.358-.7 2.688-1.232 3.682-1.624.378-.14.882-.336 1.232-.448Zm10.556-5.586v9.758h.994V95.24h-.994Zm-4.41 5.782.406.924 7.532-3.206-.392-.896-7.546 3.178Zm1.512-4.466v9.352c0 1.526.476 1.904 2.086 1.904h3.444c1.47 0 1.806-.616 1.974-2.548a2.978 2.978 0 0 1-.952-.392c-.098 1.61-.238 1.988-1.064 1.988h-3.374c-.938 0-1.106-.168-1.106-.938v-9.366h-1.008Zm5.852 1.428c0 2.786-.014 4.774-.098 5.138-.07.322-.21.378-.42.378-.154 0-.616 0-.938-.014.126.238.21.63.252.91.378 0 .938 0 1.316-.098.406-.098.672-.364.756-.924.098-.546.14-2.646.14-5.278l.042-.196-.742-.28-.182.154-.252.21h.126Zm-11.27.63v.994h4.452v-.994h-4.452Zm1.806-3.206v9.086h.994v-9.086h-.994Zm-1.932 9.45.42 1.036a121.43 121.43 0 0 0 4.326-1.96l-.224-.938c-1.666.714-3.388 1.442-4.522 1.862Zm23.324-6.944c-1.358 3.332-3.78 5.824-7 7.294.224.196.56.616.7.84 3.262-1.638 5.782-4.242 7.28-7.868l-.98-.266Zm-6.496 3.64c2.492 1.022 5.474 2.758 6.916 4.088l.63-.826c-1.484-1.33-4.508-2.982-6.986-3.962l-.56.7Zm-.14-3.29c.546.756 1.092 1.778 1.274 2.464l.854-.392c-.196-.672-.77-1.68-1.33-2.422l-.798.35Zm2.674-.49c.476.826.91 1.932 1.022 2.646l.882-.336c-.126-.7-.574-1.792-1.064-2.604l-.84.294Zm-4.578-1.876v12.194h1.05V96.906h9.436v11.186h1.092V95.898h-11.578Zm.588 10.5v1.008h10.36v-1.008h-10.36Zm18.55-8.848.014 1.134c1.526.168 4.242.168 5.74 0V97.55c-1.386.21-4.228.266-5.754 0Zm.546 5.712-1.008-.098c-.154.672-.224 1.176-.224 1.638 0 1.316 1.05 2.1 3.388 2.1 1.456 0 2.632-.112 3.5-.294l-.028-1.176c-1.12.266-2.212.378-3.458.378-1.918 0-2.366-.63-2.366-1.274 0-.378.07-.77.196-1.274Zm-3.206-6.79-1.246-.098c-.014.308-.056.658-.098.98-.168 1.162-.63 3.556-.63 5.614 0 1.904.238 3.514.518 4.508l.994-.07c-.014-.154-.028-.35-.042-.49 0-.168.028-.434.07-.63.126-.672.644-2.142.994-3.136l-.588-.462c-.238.574-.56 1.414-.798 2.044a15.302 15.302 0 0 1-.126-1.946c0-1.582.434-4.074.7-5.376.056-.252.168-.7.252-.938Zm13.944 4.298h-2.982v.98h1.96v3.976h1.022v-4.956Zm0 4.494h-.952a26.14 26.14 0 0 1-2.212 1.666l.56 1.078a60.22 60.22 0 0 0 2.142-1.82c.896 1.106 2.156 1.596 3.976 1.666 1.554.056 4.452.028 5.992-.028.042-.322.224-.826.336-1.078-1.652.112-4.802.154-6.328.098-1.61-.07-2.856-.546-3.514-1.582Zm-2.828-9.044c.91.616 1.96 1.568 2.408 2.24l.826-.686c-.49-.686-1.54-1.596-2.464-2.184l-.77.63Zm4.9.49v.882h5.194v1.89h-5.194v.896h6.216V96.71h-6.216Zm2.282-1.512a12.96 12.96 0 0 1-.574 1.862l.966.21c.238-.476.546-1.19.812-1.876l-1.204-.196Zm-2.786 1.512v8.988h1.022V96.71h-1.022Zm.56 4.998v.896h5.684v2.184h-5.684v.91h6.72v-3.99h-6.72Zm16.688 4.158v1.022h3.808v-1.022h-3.808Zm-7.728-7.966v1.022h5.376V97.9h-5.376Zm7.252-.91v10.92h1.022v-9.912h2.702v9.814h1.064V96.99h-4.788Zm-2.156.91v.252c-.098 5.992-.224 8.064-.546 8.498-.126.182-.252.224-.462.21-.266 0-.868 0-1.526-.056.182.294.294.756.308 1.064.63.042 1.274.042 1.666-.014.42-.042.672-.168.924-.532.448-.616.546-2.66.658-8.89V97.9h-1.022Zm-3.108-2.464c-.014 4.9 0 9.52-2.338 11.984.266.154.63.476.812.714 2.464-2.674 2.534-7.532 2.548-12.698h-1.022Zm16.03.658h-1.428c.084.406.126.896.126 1.414 0 1.47-.14 5.012-.14 7.084 0 2.296 1.386 3.122 3.402 3.122 3.066 0 4.886-1.75 5.838-3.08l-.784-.952c-1.008 1.456-2.464 2.884-5.026 2.884-1.33 0-2.296-.532-2.296-2.072 0-2.086.112-5.404.168-6.986.028-.462.07-.952.14-1.414Zm9.992 1.61.126 1.232c1.526-.322 5.082-.672 6.594-.826-1.288.756-2.618 2.534-2.618 4.718 0 3.136 2.94 4.508 5.544 4.606l.392-1.148c-2.268-.098-4.83-.966-4.83-3.696 0-1.652 1.218-3.794 3.22-4.438.714-.196 1.932-.224 2.744-.21l-.014-1.12c-.938.028-2.24.112-3.766.238-2.59.224-5.222.476-6.132.574-.28.028-.728.056-1.26.07Zm-270.896 20.978-1.05-.924c-.154.252-.518.658-.798.938-.938.952-3.066 2.632-4.13 3.514-1.26 1.064-1.414 1.666-.098 2.772 1.316 1.078 3.43 2.898 4.424 3.906.336.35.672.686.966 1.022l.994-.91c-1.484-1.498-3.962-3.486-5.236-4.536-.91-.756-.896-.966-.056-1.694 1.036-.868 3.052-2.45 4.018-3.29.224-.196.658-.574.966-.798Zm9.912-.49-1.33-.112c.028.294 0 .77-.056 1.162-.098.742-.462 2.492-.812 3.78-.518 1.974-1.498 4.83-2.352 6.272l1.232.406c.742-1.526 1.68-4.424 2.184-6.412.392-1.386.686-2.982.882-3.99.056-.266.168-.798.252-1.106Zm-3.094 2.338c-.518 0-1.022-.014-1.68-.098l.028 1.078c.518.042 1.008.056 1.624.056 1.512 0 3.626-.224 5.362-.616v-1.106c-1.736.448-3.794.686-5.334.686Zm4.424 1.932v1.036c.854-.098 1.708-.14 2.59-.14.826 0 1.638.07 2.366.154l.028-1.064a22.665 22.665 0 0 0-2.422-.112c-.91 0-1.834.056-2.562.126Zm.28 3.402-1.036-.112c-.126.602-.21 1.12-.21 1.652 0 1.386 1.204 2.072 3.402 2.072 1.022 0 1.96-.098 2.716-.196l.042-1.134c-.868.168-1.834.28-2.744.28-1.988 0-2.366-.644-2.366-1.302 0-.364.084-.812.196-1.26Zm3.178-7.238-.742.308c.378.532.868 1.386 1.148 1.946l.756-.336c-.294-.56-.798-1.428-1.162-1.918Zm1.554-.574-.742.322c.392.532.868 1.316 1.162 1.932l.756-.336c-.266-.532-.798-1.4-1.176-1.918Zm9.212 1.036c.154.434.35 1.078.658 1.876.462 1.274 1.232 2.66 1.82 3.556-.504-.056-1.54-.14-2.324-.21l-.084.924c1.008.07 2.716.224 3.388.392l.56-.798a5.345 5.345 0 0 1-.602-.742c-.602-.812-1.316-2.114-1.75-3.318-.322-.91-.686-2.114-.812-2.926l-1.204.14c.14.378.266.798.35 1.106Zm-5.124 1.092.028 1.106c2.478.21 4.704.196 6.482-.014 1.022-.126 2.352-.35 3.346-.63l-.126-1.106c-1.092.378-2.478.63-3.584.756-1.596.168-3.808.154-6.146-.112Zm2.17 4.452-1.092-.252c-.406.826-.686 1.554-.686 2.338 0 1.904 1.68 2.856 4.34 2.87 1.568.014 2.744-.14 3.626-.294l.042-1.12c-.966.21-2.184.35-3.598.35-2.086-.028-3.304-.602-3.304-1.946 0-.658.252-1.26.672-1.946Zm12.754-5.39-1.358-.028c.084.322.084.924.084 1.246 0 .812.028 2.52.154 3.724.392 3.626 1.652 4.942 2.982 4.942.952 0 1.792-.812 2.646-3.178l-.882-.994c-.364 1.4-1.022 2.842-1.736 2.842-1.008 0-1.68-1.554-1.918-3.892a35.012 35.012 0 0 1-.098-3.304c.014-.364.056-1.036.126-1.358Zm7.28.378-1.078.378c1.33 1.638 2.184 4.522 2.422 7.042l1.134-.448c-.21-2.366-1.218-5.348-2.478-6.972Z" fill="#000" fill-opacity=".45"/><path fill="#fff" d="M408 151h301v66H408z"/><rect x="420" y="163" width="277" height="42" rx="4" fill="#9D9D9D"/><path d="M488.094 183.376h-2.969v-2.969a.156.156 0 0 0-.156-.156h-.938a.156.156 0 0 0-.156.156v2.969h-2.969a.156.156 0 0 0-.156.156v.938c0 .086.07.156.156.156h2.969v2.969c0 .086.07.156.156.156h.938c.086 0 .156-.07.156-.156v-2.969h2.969c.086 0 .156-.07.156-.156v-.938a.156.156 0 0 0-.156-.156Z" fill="#fff"/><path d="M484.5 175.25a8.75 8.75 0 1 0 .001 17.501 8.75 8.75 0 0 0-.001-17.501Zm0 16.016a7.267 7.267 0 0 1 0-14.532 7.267 7.267 0 0 1 0 14.532Zm25.098-13.27h-1.302c.056.322.084.84.084 1.162-.028 4.424-1.176 6.79-2.926 8.372-.42.392-.98.784-1.428 1.022l1.022.826c2.758-1.918 4.298-4.536 4.48-10.248.014-.336.042-.812.07-1.134Zm4.872 2.912-.798-.406c-.238.042-.504.07-.882.07h-6.916c-.546 0-1.12-.028-1.61-.07v1.176a20.043 20.043 0 0 1 1.624-.056h7.378c0 1.498-.182 4.942-.714 6.02-.154.336-.42.462-.812.462-.602 0-1.33-.07-2.086-.168l.14 1.162c.728.056 1.54.098 2.24.098.77 0 1.218-.252 1.498-.854.63-1.344.812-5.404.854-6.762a7.31 7.31 0 0 1 .084-.672Zm7.84 1.68-.77.784c1.736 1.078 4.13 2.8 5.418 3.976l.826-.98c-1.386-1.12-3.682-2.73-5.474-3.78Zm6.398-2.548-.924-.56c-.224.084-.532.126-.91.126h-4.452l-.448 1.008h5.18c-.322 1.302-1.204 3.08-2.282 4.368a12.047 12.047 0 0 1-5.768 3.766l.994.882c2.66-.98 4.48-2.478 5.754-4.046 1.232-1.512 2.114-3.374 2.534-4.802a4.4 4.4 0 0 1 .322-.742Zm-4.718-2.03-1.274-.406a4.786 4.786 0 0 1-.448 1.106c-.644 1.288-2.086 3.388-4.48 4.886l.924.714c2.24-1.54 3.822-3.654 4.648-5.194.14-.266.392-.742.63-1.106Zm8.554 1.4c.014.35.014.77.014 1.092v6.902c0 .49-.028 1.512-.028 1.694h1.19c0-.182-.014-1.078-.014-1.54v-7.014h7.644v7.014c0 .588-.014 1.386-.028 1.54h1.218a49.886 49.886 0 0 1-.028-1.694v-6.902c0-.35 0-.742.028-1.078-.434.014-.938.014-1.232.014h-7.518c-.336 0-.7 0-1.246-.028Zm9.268 7.798h-8.666v1.092h8.666v-1.092Zm13.398-9.408-.756.322c.378.532.854 1.372 1.134 1.946l.756-.35c-.28-.56-.784-1.414-1.134-1.918Zm1.526-.56-.728.322c.392.518.84 1.316 1.148 1.918l.756-.336a17.53 17.53 0 0 0-1.176-1.904Zm-.602 3.346-.924-.56c-.238.098-.546.14-.924.14h-4.466l-.448 1.008h5.194c-.294 1.274-1.148 3.08-2.24 4.368-1.274 1.484-3.01 2.758-5.586 3.514l1.008.91c2.632-.966 4.312-2.254 5.586-3.808 1.232-1.512 2.1-3.416 2.478-4.816.07-.224.21-.546.322-.756Zm-4.69-2.114-1.288-.42a5.06 5.06 0 0 1-.434 1.106c-.616 1.26-1.988 3.29-4.41 4.732l.98.728c2.24-1.498 3.71-3.5 4.536-5.04.14-.266.392-.742.616-1.106Zm13.174-.392-1.288-.126c0 1.078-.196 2.338-.448 3.444-.378 1.722-1.498 5.46-3.094 7.588l1.134.462c1.582-2.562 2.59-6.048 3.066-8.008.182-.868.378-2.016.462-2.52.056-.28.112-.574.168-.84Zm4.83 1.498-1.022.462c.98 1.148 2.072 3.626 2.492 5.068l1.078-.518c-.462-1.302-1.68-3.878-2.548-5.012Zm-9.87 1.582.126 1.204c.35-.056.938-.126 1.26-.168.854-.084 3.472-.392 4.41-.392.896 0 1.484.238 1.484 1.512 0 1.512-.21 3.346-.658 4.284-.294.616-.714.728-1.232.728-.392 0-1.12-.112-1.708-.294l.182 1.176a8.482 8.482 0 0 0 1.652.196c.896 0 1.596-.224 2.044-1.162.574-1.162.798-3.388.798-5.054 0-1.904-1.022-2.38-2.268-2.38-.952 0-3.794.322-4.83.35-.448.014-.812.014-1.26 0Zm17.598-3.136-.28 1.078c1.078.28 4.102.896 5.446 1.078l.266-1.064c-1.246-.126-4.228-.7-5.432-1.092Zm-.308 2.562-1.176-.154c-.084 1.456-.434 4.396-.714 5.67l1.05.252c.084-.224.21-.448.42-.686.98-1.19 2.492-1.876 4.326-1.876 1.428 0 2.478.798 2.478 1.904 0 1.918-2.156 3.192-6.58 2.66l.336 1.134c5.194.434 7.42-1.26 7.42-3.752 0-1.652-1.428-2.94-3.57-2.94-1.68 0-3.22.546-4.564 1.722.14-.91.392-2.982.574-3.934Zm10.346-.336v.994h4.48v-.994h-4.48Zm1.988-3.01v12.866h.966V177.24h-.966Zm-.028 3.626c-.392 2.002-1.33 4.438-2.254 5.698.168.238.42.63.546.91.994-1.4 1.932-4.158 2.366-6.384l-.658-.224Zm.924 1.344-.448.448c.364.546 1.33 2.198 1.652 2.884l.588-.826c-.266-.406-1.456-2.128-1.792-2.506Zm2.982-1.652v.896h5.334v-.896h-5.334Zm2.632-2.366c.896 1.246 2.492 2.548 3.92 3.29.14-.28.364-.672.56-.91-1.47-.644-3.038-1.904-4.032-3.304h-.966c-.756 1.274-2.254 2.646-3.822 3.388.182.224.42.602.532.868 1.526-.826 3.01-2.142 3.808-3.332Zm-2.618 5.39h5.264v1.918h-5.264v-1.918Zm-.924-.84v3.626h7.154v-3.626h-7.154Zm3.038-1.652v3.682c0 1.75-.448 3.5-4.004 4.634.182.168.49.56.574.784 3.752-1.232 4.396-3.374 4.396-5.39v-3.71h-.966Zm1.106 4.732-.896.196c.854 2.436 2.128 3.43 4.074 4.172.112-.308.378-.658.616-.882-1.792-.602-2.982-1.386-3.794-3.486Zm10.626.448v3.878h1.05v-3.878h-1.05Zm0-9.03v3.92h1.036v-3.92h-1.036Zm-.518 4.172c-.574.672-1.624 1.596-2.408 2.17l.77.434a24.956 24.956 0 0 0 2.618-2.128l-.98-.476Zm3.024.91c-1.316 1.19-3.528 2.772-5.236 3.738l.742.504c1.708-.952 3.864-2.436 5.446-3.724l-.952-.518Zm-6.51 1.218c1.078.546 2.394 1.386 3.038 1.974l.728-.672c-.686-.588-2.016-1.386-3.066-1.904l-.7.602Zm6.356 1.106c1.246.742 2.786 1.89 3.528 2.632l.742-.644c-.784-.742-2.338-1.82-3.57-2.548l-.7.56Zm.042 2.996c1.232.63 2.744 1.61 3.472 2.296l.868-.63c-.798-.686-2.338-1.624-3.542-2.212l-.798.546Zm-7.924-1.806.056.966c2.66-.028 6.79-.154 10.668-.266l.056-.84c-3.99.084-8.218.14-10.78.14Zm3.136 1.246c-.84.826-2.184 1.638-3.43 2.156.252.182.644.546.826.742 1.218-.602 2.66-1.568 3.598-2.534l-.994-.364Zm-2.982-8.596v.924h11.83v-.924h-11.83Zm-.042 2.268v2.632h.994v-1.722h9.968v1.722h1.036v-2.632h-11.998Zm21.756-2.842h-1.288c.028.126.07.518.098.896.042.77.056 3.556.056 4.172l1.064.546c-.014-1.12-.042-3.822 0-4.732 0-.168.042-.714.07-.882Zm-7.448 1.96.028 1.078c2.114-.154 5.11-.252 7.518-.252 2.058 0 3.318.028 4.102.07l.014-1.036c-.658-.014-2.394-.014-4.102-.014-2.156 0-5.656.126-7.56.154Zm7.35 4.06-.77-.392c.224 1.498-.336 2.226-1.204 2.226-.77 0-1.428-.504-1.428-1.386 0-.91.686-1.484 1.428-1.484.756 0 1.372.532 1.372 1.792 0 2.31-1.484 3.556-4.032 4.158l.938.91c3.248-.966 4.172-3.066 4.172-4.97 0-1.61-.826-2.814-2.45-2.814-1.33 0-2.478 1.036-2.478 2.422 0 1.526 1.134 2.352 2.31 2.352 1.274 0 2.142-.938 2.142-2.814Zm8.652-5.236.028 1.148c.308-.042.616-.056.938-.084.728-.042 3.528-.154 4.27-.196-.7.63-2.464 2.1-3.248 2.744a271.08 271.08 0 0 1-3.766 3.15l.812.812c1.764-1.806 3.024-2.786 5.348-2.786 1.834 0 3.15 1.022 3.15 2.408 0 1.75-1.498 2.73-3.878 2.73-1.106 0-1.876-.406-1.876-1.092 0-.49.49-.882 1.134-.882 1.12 0 1.806.854 1.89 2.044l1.008-.168c-.098-1.414-1.036-2.73-2.898-2.73-1.288 0-2.156.868-2.156 1.82 0 1.176 1.162 2.002 3.066 2.002 2.968 0 4.83-1.47 4.83-3.724 0-1.89-1.666-3.276-3.99-3.276-.63 0-1.302.07-1.946.28 1.092-.896 2.996-2.534 3.682-3.066.266-.21.546-.392.798-.56l-.644-.826c-.154.056-.35.084-.77.126-.742.07-4.06.168-4.802.168-.28 0-.672-.014-.98-.042Z" fill="#fff"/><path d="M415.098 237.996h-1.302c.056.322.084.84.084 1.162-.028 4.424-1.176 6.79-2.926 8.372-.42.392-.98.784-1.428 1.022l1.022.826c2.758-1.918 4.298-4.536 4.48-10.248.014-.336.042-.812.07-1.134Zm4.872 2.912-.798-.406c-.238.042-.504.07-.882.07h-6.916c-.546 0-1.12-.028-1.61-.07v1.176a20.043 20.043 0 0 1 1.624-.056h7.378c0 1.498-.182 4.942-.714 6.02-.154.336-.42.462-.812.462-.602 0-1.33-.07-2.086-.168l.14 1.162c.728.056 1.54.098 2.24.098.77 0 1.218-.252 1.498-.854.63-1.344.812-5.404.854-6.762a7.31 7.31 0 0 1 .084-.672Zm7.84 1.68-.77.784c1.736 1.078 4.13 2.8 5.418 3.976l.826-.98c-1.386-1.12-3.682-2.73-5.474-3.78Zm6.398-2.548-.924-.56c-.224.084-.532.126-.91.126h-4.452l-.448 1.008h5.18c-.322 1.302-1.204 3.08-2.282 4.368a12.047 12.047 0 0 1-5.768 3.766l.994.882c2.66-.98 4.48-2.478 5.754-4.046 1.232-1.512 2.114-3.374 2.534-4.802a4.4 4.4 0 0 1 .322-.742Zm-4.718-2.03-1.274-.406a4.786 4.786 0 0 1-.448 1.106c-.644 1.288-2.086 3.388-4.48 4.886l.924.714c2.24-1.54 3.822-3.654 4.648-5.194.14-.266.392-.742.63-1.106Zm8.554 1.4c.014.35.014.77.014 1.092v6.902c0 .49-.028 1.512-.028 1.694h1.19c0-.182-.014-1.078-.014-1.54v-7.014h7.644v7.014c0 .588-.014 1.386-.028 1.54h1.218a49.886 49.886 0 0 1-.028-1.694v-6.902c0-.35 0-.742.028-1.078-.434.014-.938.014-1.232.014h-7.518c-.336 0-.7 0-1.246-.028Zm9.268 7.798h-8.666v1.092h8.666v-1.092Zm13.398-9.408-.756.322c.378.532.854 1.372 1.134 1.946l.756-.35c-.28-.56-.784-1.414-1.134-1.918Zm1.526-.56-.728.322c.392.518.84 1.316 1.148 1.918l.756-.336a17.53 17.53 0 0 0-1.176-1.904Zm-.602 3.346-.924-.56c-.238.098-.546.14-.924.14h-4.466l-.448 1.008h5.194c-.294 1.274-1.148 3.08-2.24 4.368-1.274 1.484-3.01 2.758-5.586 3.514l1.008.91c2.632-.966 4.312-2.254 5.586-3.808 1.232-1.512 2.1-3.416 2.478-4.816.07-.224.21-.546.322-.756Zm-4.69-2.114-1.288-.42a5.06 5.06 0 0 1-.434 1.106c-.616 1.26-1.988 3.29-4.41 4.732l.98.728c2.24-1.498 3.71-3.5 4.536-5.04.14-.266.392-.742.616-1.106Zm13.174-.392-1.288-.126c0 1.078-.196 2.338-.448 3.444-.378 1.722-1.498 5.46-3.094 7.588l1.134.462c1.582-2.562 2.59-6.048 3.066-8.008.182-.868.378-2.016.462-2.52.056-.28.112-.574.168-.84Zm4.83 1.498-1.022.462c.98 1.148 2.072 3.626 2.492 5.068l1.078-.518c-.462-1.302-1.68-3.878-2.548-5.012Zm-9.87 1.582.126 1.204c.35-.056.938-.126 1.26-.168.854-.084 3.472-.392 4.41-.392.896 0 1.484.238 1.484 1.512 0 1.512-.21 3.346-.658 4.284-.294.616-.714.728-1.232.728-.392 0-1.12-.112-1.708-.294l.182 1.176a8.482 8.482 0 0 0 1.652.196c.896 0 1.596-.224 2.044-1.162.574-1.162.798-3.388.798-5.054 0-1.904-1.022-2.38-2.268-2.38-.952 0-3.794.322-4.83.35-.448.014-.812.014-1.26 0Zm17.598-3.136-.28 1.078c1.078.28 4.102.896 5.446 1.078l.266-1.064c-1.246-.126-4.228-.7-5.432-1.092Zm-.308 2.562-1.176-.154c-.084 1.456-.434 4.396-.714 5.67l1.05.252c.084-.224.21-.448.42-.686.98-1.19 2.492-1.876 4.326-1.876 1.428 0 2.478.798 2.478 1.904 0 1.918-2.156 3.192-6.58 2.66l.336 1.134c5.194.434 7.42-1.26 7.42-3.752 0-1.652-1.428-2.94-3.57-2.94-1.68 0-3.22.546-4.564 1.722.14-.91.392-2.982.574-3.934Zm10.346-.336v.994h4.48v-.994h-4.48Zm1.988-3.01v12.866h.966V237.24h-.966Zm-.028 3.626c-.392 2.002-1.33 4.438-2.254 5.698.168.238.42.63.546.91.994-1.4 1.932-4.158 2.366-6.384l-.658-.224Zm.924 1.344-.448.448c.364.546 1.33 2.198 1.652 2.884l.588-.826c-.266-.406-1.456-2.128-1.792-2.506Zm2.982-1.652v.896h5.334v-.896h-5.334Zm2.632-2.366c.896 1.246 2.492 2.548 3.92 3.29.14-.28.364-.672.56-.91-1.47-.644-3.038-1.904-4.032-3.304h-.966c-.756 1.274-2.254 2.646-3.822 3.388.182.224.42.602.532.868 1.526-.826 3.01-2.142 3.808-3.332Zm-2.618 5.39h5.264v1.918h-5.264v-1.918Zm-.924-.84v3.626h7.154v-3.626h-7.154Zm3.038-1.652v3.682c0 1.75-.448 3.5-4.004 4.634.182.168.49.56.574.784 3.752-1.232 4.396-3.374 4.396-5.39v-3.71h-.966Zm1.106 4.732-.896.196c.854 2.436 2.128 3.43 4.074 4.172.112-.308.378-.658.616-.882-1.792-.602-2.982-1.386-3.794-3.486Zm10.626.448v3.878h1.05v-3.878h-1.05Zm0-9.03v3.92h1.036v-3.92h-1.036Zm-.518 4.172c-.574.672-1.624 1.596-2.408 2.17l.77.434a24.956 24.956 0 0 0 2.618-2.128l-.98-.476Zm3.024.91c-1.316 1.19-3.528 2.772-5.236 3.738l.742.504c1.708-.952 3.864-2.436 5.446-3.724l-.952-.518Zm-6.51 1.218c1.078.546 2.394 1.386 3.038 1.974l.728-.672c-.686-.588-2.016-1.386-3.066-1.904l-.7.602Zm6.356 1.106c1.246.742 2.786 1.89 3.528 2.632l.742-.644c-.784-.742-2.338-1.82-3.57-2.548l-.7.56Zm.042 2.996c1.232.63 2.744 1.61 3.472 2.296l.868-.63c-.798-.686-2.338-1.624-3.542-2.212l-.798.546Zm-7.924-1.806.056.966c2.66-.028 6.79-.154 10.668-.266l.056-.84c-3.99.084-8.218.14-10.78.14Zm3.136 1.246c-.84.826-2.184 1.638-3.43 2.156.252.182.644.546.826.742 1.218-.602 2.66-1.568 3.598-2.534l-.994-.364Zm-2.982-8.596v.924h11.83v-.924h-11.83Zm-.042 2.268v2.632h.994v-1.722h9.968v1.722h1.036v-2.632h-11.998Zm21.756-2.842h-1.288c.028.126.07.518.098.896.042.77.056 3.556.056 4.172l1.064.546c-.014-1.12-.042-3.822 0-4.732 0-.168.042-.714.07-.882Zm-7.448 1.96.028 1.078c2.114-.154 5.11-.252 7.518-.252 2.058 0 3.318.028 4.102.07l.014-1.036c-.658-.014-2.394-.014-4.102-.014-2.156 0-5.656.126-7.56.154Zm7.35 4.06-.77-.392c.224 1.498-.336 2.226-1.204 2.226-.77 0-1.428-.504-1.428-1.386 0-.91.686-1.484 1.428-1.484.756 0 1.372.532 1.372 1.792 0 2.31-1.484 3.556-4.032 4.158l.938.91c3.248-.966 4.172-3.066 4.172-4.97 0-1.61-.826-2.814-2.45-2.814-1.33 0-2.478 1.036-2.478 2.422 0 1.526 1.134 2.352 2.31 2.352 1.274 0 2.142-.938 2.142-2.814Zm8.652-5.236.028 1.148c.308-.042.616-.056.938-.084.728-.042 3.528-.154 4.27-.196-.7.63-2.464 2.1-3.248 2.744a271.08 271.08 0 0 1-3.766 3.15l.812.812c1.764-1.806 3.024-2.786 5.348-2.786 1.834 0 3.15 1.022 3.15 2.408 0 1.75-1.498 2.73-3.878 2.73-1.106 0-1.876-.406-1.876-1.092 0-.49.49-.882 1.134-.882 1.12 0 1.806.854 1.89 2.044l1.008-.168c-.098-1.414-1.036-2.73-2.898-2.73-1.288 0-2.156.868-2.156 1.82 0 1.176 1.162 2.002 3.066 2.002 2.968 0 4.83-1.47 4.83-3.724 0-1.89-1.666-3.276-3.99-3.276-.63 0-1.302.07-1.946.28 1.092-.896 2.996-2.534 3.682-3.066.266-.21.546-.392.798-.56l-.644-.826c-.154.056-.35.084-.77.126-.742.07-4.06.168-4.802.168-.28 0-.672-.014-.98-.042Zm18.228-.896h-1.33c.056.434.07.756.07 1.05v1.862h1.19v-1.862c0-.294.014-.616.07-1.05Zm4.774 2.716-.756-.476c-.182.056-.434.112-.952.112h-7.42c-.49 0-.91-.028-1.316-.056.056.294.056.77.056 1.064v2.464c0 .28-.014.658-.056.896h1.218a7.76 7.76 0 0 1-.042-.826v-2.506h7.812c-.126 1.19-.56 2.884-1.316 4.074-.868 1.33-2.394 2.366-3.808 2.828a8.8 8.8 0 0 1-1.442.392l.91 1.036c2.562-.7 4.494-2.128 5.53-3.962.784-1.33 1.19-3.08 1.386-4.2.042-.266.126-.644.196-.84Zm2.87 3.43.546 1.092c2.254-.7 4.48-1.722 6.02-2.674 1.638-1.022 3.108-2.198 4.312-3.444l-.938-.882c-.966 1.176-2.366 2.38-3.836 3.304-1.554.966-3.682 1.96-6.104 2.604Zm5.88-2.03v6.034c0 .518-.042 1.218-.084 1.484h1.386c-.07-.266-.098-.966-.098-1.484v-6.398l-1.204.364Zm10.094-3.164-.812.854c1.05.686 2.786 2.198 3.5 2.926l.868-.896c-.77-.77-2.576-2.226-3.556-2.884Zm-1.204 9.38.728 1.148c2.338-.434 4.102-1.302 5.516-2.184a14.021 14.021 0 0 0 4.69-4.97l-.672-1.204c-.812 1.736-2.506 3.808-4.676 5.166-1.33.826-3.15 1.68-5.586 2.044Zm21.21-9.198-.784.336c.462.63.91 1.4 1.26 2.142l.798-.364c-.322-.672-.924-1.61-1.274-2.114Zm1.68-.7-.756.364c.462.616.924 1.358 1.288 2.1l.784-.392c-.322-.658-.938-1.582-1.316-2.072Zm-6.594 9.716c0 .532-.028 1.218-.098 1.666h1.358a16.805 16.805 0 0 1-.084-1.666c0-.658-.014-5.95-.014-8.134 0-.42.056-1.036.098-1.456h-1.372c.07.434.112 1.05.112 1.456v8.134Zm.91-5.922v1.232c1.526.476 4.144 1.47 5.74 2.324l.49-1.176c-1.554-.77-4.368-1.848-6.23-2.38Zm16.38-4.228h-1.33c.056.434.07.756.07 1.05v1.862h1.19v-1.862c0-.294.014-.616.07-1.05Zm4.774 2.716-.756-.476c-.182.056-.434.112-.952.112h-7.42c-.49 0-.91-.028-1.316-.056.056.294.056.77.056 1.064v2.464c0 .28-.014.658-.056.896h1.218a7.76 7.76 0 0 1-.042-.826v-2.506h7.812c-.126 1.19-.56 2.884-1.316 4.074-.868 1.33-2.394 2.366-3.808 2.828a8.8 8.8 0 0 1-1.442.392l.91 1.036c2.562-.7 4.494-2.128 5.53-3.962.784-1.33 1.19-3.08 1.386-4.2.042-.266.126-.644.196-.84Zm7.602-2.38-1.302-.14c0 1.078-.182 2.338-.448 3.458-.378 1.708-1.498 5.446-3.094 7.588l1.148.448c1.582-2.548 2.576-6.034 3.052-8.008.196-.868.378-2.016.476-2.52.056-.266.112-.574.168-.826Zm4.816 1.61-1.022.462c.98 1.162 2.086 3.598 2.492 5.026l1.092-.518c-.476-1.288-1.694-3.836-2.562-4.97Zm-9.856 1.456.112 1.218c.364-.056.938-.126 1.26-.168.854-.084 3.486-.406 4.424-.406.896 0 1.484.238 1.484 1.526 0 1.512-.224 3.332-.672 4.284-.28.602-.7.714-1.218.714a6.812 6.812 0 0 1-1.722-.28l.196 1.162a7.37 7.37 0 0 0 1.638.21c.91 0 1.61-.238 2.044-1.176.588-1.162.812-3.388.812-5.054 0-1.89-1.022-2.366-2.268-2.366-.952 0-3.794.308-4.844.336-.448.014-.812.028-1.246 0Zm10.01-3.486-.756.322c.392.532.868 1.372 1.148 1.946l.756-.336a20.08 20.08 0 0 0-1.148-1.932Zm1.54-.56-.742.322c.406.518.868 1.316 1.162 1.932l.77-.336c-.28-.518-.812-1.4-1.19-1.918Zm2.94 1.26v.91h11.242v-.91h-11.242Zm.644 2.058v.882h10.052v-.882H634.03Zm-1.162 2.142v.924h12.236v-.924h-12.236Zm5.558-5.376v6.09h1.064v-6.09h-1.064Zm-.042 5.684c-1.302 1.386-3.836 2.73-5.992 3.346.224.21.518.602.686.868 2.17-.714 4.76-2.184 6.216-3.78l-.91-.434Zm1.526.14-.952.196c.966 3.388 2.8 5.754 5.894 6.818.154-.28.448-.714.686-.924-2.968-.882-4.788-3.094-5.628-6.09Zm3.99.938c-.798.742-2.156 1.708-3.136 2.296l.644.574c1.008-.56 2.338-1.414 3.332-2.212l-.84-.658Zm-9.954 5.152.336.966c1.68-.42 4.074-1.022 6.286-1.596l-.098-.938c-2.394.588-4.914 1.218-6.524 1.568Zm1.974-3.626v3.556h1.05v-4.228l-.294-.084-.756.756Zm16.52-3.29v6.496c0 .224-.07.294-.336.294-.266.014-1.19.014-2.142-.014.168.322.336.784.392 1.092 1.232 0 2.058-.014 2.562-.168.49-.182.658-.504.658-1.176v-6.524h-1.134Zm-3.178 1.862c-.602 1.582-1.638 3.122-2.786 4.116.28.154.756.448.966.644 1.12-1.078 2.226-2.758 2.912-4.48l-1.092-.28Zm6.3.42c1.022 1.344 2.072 3.178 2.45 4.34l1.05-.462c-.406-1.19-1.498-2.968-2.534-4.284l-.966.406Zm-7.476-6.23v1.036h9.842v-1.036h-9.842Zm-1.26 3.388v1.05h12.348v-1.05h-12.348Zm20.496-2.59c.154.434.35 1.078.658 1.876.462 1.274 1.232 2.66 1.82 3.556-.504-.056-1.54-.14-2.324-.21l-.084.924c1.008.07 2.716.224 3.388.392l.56-.798a5.345 5.345 0 0 1-.602-.742c-.602-.812-1.316-2.114-1.75-3.318-.322-.91-.686-2.114-.812-2.926l-1.204.14c.14.378.266.798.35 1.106Zm-5.124 1.092.028 1.106c2.478.21 4.704.196 6.482-.014 1.022-.126 2.352-.35 3.346-.63l-.126-1.106c-1.092.378-2.478.63-3.584.756-1.596.168-3.808.154-6.146-.112Zm2.17 4.452-1.092-.252c-.406.826-.686 1.554-.686 2.338 0 1.904 1.68 2.856 4.34 2.87 1.568.014 2.744-.14 3.626-.294l.042-1.12c-.966.21-2.184.35-3.598.35-2.086-.028-3.304-.602-3.304-1.946 0-.658.252-1.26.672-1.946Zm23.268 3.304-.182-1.19c-.714.742-1.456 1.148-2.114 1.148-.504 0-.742-.378-.742-.854 0-1.414.532-3.822.532-5.222 0-1.134-.644-1.876-1.96-1.876-1.722 0-4.046 2.016-4.914 2.968l-.014 1.386c1.316-1.596 3.346-3.332 4.662-3.332.714 0 1.12.35 1.12 1.162 0 1.358-.518 3.654-.518 5.222 0 1.148.616 1.764 1.554 1.764.952 0 1.82-.42 2.576-1.176Zm-9.408-6.692-.112.378-.056.728c-.546.924-2.436 3.486-3.304 4.578l.7.952a120 120 0 0 0 2.828-4.102l.42-1.918c.238-.392.616-.994.854-1.358l-.406-.476c-.644.21-2.394.42-3.136.462-.35.028-.616.028-.924.014l.126 1.162c1.036-.168 2.548-.35 3.01-.42Zm-.14-2.31c0 .518-.336 4.956-.364 6.188-.014 1.54-.028 2.24-.028 3.598 0 .224-.014.56-.042.826h1.204c-.014-.266-.056-.616-.07-.854-.056-1.246-.056-2.1-.056-3.374 0-2.464.42-6.468.616-7.378l-1.316-.042c.07.35.056.714.056 1.036Zm16.1-.938-1.33-.112c.028.294 0 .77-.056 1.162-.098.728-.462 2.492-.798 3.78-.532 1.974-1.512 4.816-2.352 6.272l1.218.406c.742-1.526 1.68-4.424 2.184-6.412.392-1.4.686-2.982.896-3.99.056-.266.154-.798.238-1.106Zm-3.094 2.338c-.518 0-1.022-.028-1.68-.112l.028 1.092c.518.042 1.008.056 1.624.056 1.512 0 3.626-.238 5.362-.63v-1.092c-1.736.434-3.794.686-5.334.686Zm4.424 1.918v1.05a22.763 22.763 0 0 1 2.59-.154c.826 0 1.638.084 2.366.168l.028-1.064a22.665 22.665 0 0 0-2.422-.112c-.896 0-1.834.042-2.562.112Zm.28 3.402-1.036-.098c-.126.588-.21 1.12-.21 1.652 0 1.386 1.204 2.058 3.402 2.058 1.022 0 1.96-.084 2.716-.196l.042-1.12c-.868.168-1.82.266-2.744.266-1.988 0-2.366-.644-2.366-1.302 0-.364.084-.798.196-1.26Zm-283.122 14.37-.28 1.078c1.078.28 4.102.896 5.446 1.078l.266-1.064c-1.246-.126-4.228-.7-5.432-1.092Zm-.308 2.562-1.176-.154c-.084 1.456-.434 4.396-.714 5.67l1.05.252c.084-.224.21-.448.42-.686.98-1.19 2.492-1.876 4.326-1.876 1.428 0 2.478.798 2.478 1.904 0 1.918-2.156 3.192-6.58 2.66l.336 1.134c5.194.434 7.42-1.26 7.42-3.752 0-1.652-1.428-2.94-3.57-2.94-1.68 0-3.22.546-4.564 1.722.14-.91.392-2.982.574-3.934Zm13.454 9.198.952-.812c-.882-1.022-2.142-2.282-3.15-3.094l-.91.798a24.128 24.128 0 0 1 3.108 3.108Zm-3.899 19.2v-4.298l.028-.406.028-.406-.112.112a1.245 1.245 0 0 0-.126.112 2.055 2.055 0 0 1-.196.154 17.87 17.87 0 0 1-.378.294c-.158.112-.35.252-.574.42l-.476-.686 1.778-1.288h1.008v5.992h-.98Zm.35 2.786c-.793 0-1.54-.149-2.24-.448a5.934 5.934 0 0 1-1.848-1.232 5.951 5.951 0 0 1-1.232-1.848 5.66 5.66 0 0 1-.448-2.24c0-.803.15-1.549.448-2.24a5.786 5.786 0 0 1 3.08-3.08 5.643 5.643 0 0 1 2.24-.448c.803 0 1.55.149 2.24.448.7.299 1.312.714 1.834 1.246a5.647 5.647 0 0 1 1.246 1.834c.299.691.448 1.437.448 2.24 0 .793-.149 1.54-.448 2.24a5.805 5.805 0 0 1-1.246 1.848 5.758 5.758 0 0 1-1.834 1.232 5.573 5.573 0 0 1-2.24.448Zm0-.784c.691 0 1.335-.126 1.932-.378a5.064 5.064 0 0 0 1.596-1.078 4.911 4.911 0 0 0 1.064-1.582 4.855 4.855 0 0 0 .392-1.946c0-.691-.13-1.335-.392-1.932a4.88 4.88 0 0 0-2.66-2.66 4.77 4.77 0 0 0-1.932-.392c-.69 0-1.339.131-1.946.392a4.938 4.938 0 0 0-1.582 1.064 5.081 5.081 0 0 0-1.078 1.596 4.917 4.917 0 0 0-.378 1.932c0 .691.126 1.339.378 1.946a5.135 5.135 0 0 0 2.66 2.66 5.025 5.025 0 0 0 1.946.378Zm15.66-10.57v.91h11.242v-.91h-11.242Zm.644 2.058v.882h10.052v-.882h-10.052Zm-1.162 2.142v.924h12.236v-.924h-12.236Zm5.558-5.376v6.09h1.064v-6.09h-1.064Zm-.042 5.684c-1.302 1.386-3.836 2.73-5.992 3.346.224.21.518.602.686.868 2.17-.714 4.76-2.184 6.216-3.78l-.91-.434Zm1.526.14-.952.196c.966 3.388 2.8 5.754 5.894 6.818.154-.28.448-.714.686-.924-2.968-.882-4.788-3.094-5.628-6.09Zm3.99.938c-.798.742-2.156 1.708-3.136 2.296l.644.574c1.008-.56 2.338-1.414 3.332-2.212l-.84-.658Zm-9.954 5.152.336.966c1.68-.42 4.074-1.022 6.286-1.596l-.098-.938c-2.394.588-4.914 1.218-6.524 1.568Zm1.974-3.626v3.556h1.05v-4.228l-.294-.084-.756.756Zm16.52-3.29v6.496c0 .224-.07.294-.336.294-.266.014-1.19.014-2.142-.014.168.322.336.784.392 1.092 1.232 0 2.058-.014 2.562-.168.49-.182.658-.504.658-1.176v-6.524h-1.134Zm-3.178 1.862c-.602 1.582-1.638 3.122-2.786 4.116.28.154.756.448.966.644 1.12-1.078 2.226-2.758 2.912-4.48l-1.092-.28Zm6.3.42c1.022 1.344 2.072 3.178 2.45 4.34l1.05-.462c-.406-1.19-1.498-2.968-2.534-4.284l-.966.406Zm-7.476-6.23v1.036h9.842v-1.036h-9.842Zm-1.26 3.388v1.05h12.348v-1.05h-12.348Zm17.934-3.584h-1.428c.084.406.126.896.126 1.414 0 1.47-.14 5.012-.14 7.084 0 2.296 1.386 3.122 3.402 3.122 3.066 0 4.886-1.75 5.838-3.08l-.784-.952c-1.008 1.456-2.464 2.884-5.026 2.884-1.33 0-2.296-.532-2.296-2.072 0-2.086.112-5.404.168-6.986.028-.462.07-.952.14-1.414Zm15.428-.098-1.33-.112c.028.294 0 .77-.056 1.162-.098.728-.462 2.492-.798 3.78-.532 1.974-1.512 4.816-2.352 6.272l1.218.406c.742-1.526 1.68-4.424 2.184-6.412.392-1.4.686-2.982.896-3.99.056-.266.154-.798.238-1.106Zm-3.094 2.338c-.518 0-1.022-.028-1.68-.112l.028 1.092c.518.042 1.008.056 1.624.056 1.512 0 3.626-.238 5.362-.63v-1.092c-1.736.434-3.794.686-5.334.686Zm4.424 1.918v1.05a22.763 22.763 0 0 1 2.59-.154c.826 0 1.638.084 2.366.168l.028-1.064a22.665 22.665 0 0 0-2.422-.112c-.896 0-1.834.042-2.562.112Zm.28 3.402-1.036-.098c-.126.588-.21 1.12-.21 1.652 0 1.386 1.204 2.058 3.402 2.058 1.022 0 1.96-.084 2.716-.196l.042-1.12c-.868.168-1.82.266-2.744.266-1.988 0-2.366-.644-2.366-1.302 0-.364.084-.798.196-1.26Zm9.324-6.412-1.358-.028c.084.322.084.924.084 1.246 0 .812.028 2.52.154 3.724.392 3.626 1.652 4.942 2.982 4.942.952 0 1.792-.812 2.646-3.178l-.882-.994c-.364 1.4-1.022 2.842-1.736 2.842-1.008 0-1.68-1.554-1.918-3.892a35.012 35.012 0 0 1-.098-3.304c.014-.364.056-1.036.126-1.358Zm7.28.378-1.078.378c1.33 1.638 2.184 4.522 2.422 7.042l1.134-.448c-.21-2.366-1.218-5.348-2.478-6.972Zm5.628.028v1.218c.35-.028.896-.056 1.176-.056h7.686c.406 0 .854.028 1.204.056v-1.218c-.336.042-.77.07-1.204.07h-7.686c-.294 0-.812-.028-1.176-.07Zm4.326 8.218h1.19v-7.518h-1.19v7.518Zm-5.18-.686v1.26c.42-.028.854-.042 1.232-.042h9.254c.266 0 .784 0 1.148.042v-1.26c-.35.028-.728.084-1.148.084h-9.254c-.392 0-.826-.028-1.232-.084Zm23.674-8.792h-1.316c.042.336.084.742.084 1.218v2.212c0 2.632-.182 3.78-1.176 4.928-.868.994-2.058 1.54-3.346 1.876l.924.966c1.022-.35 2.422-.966 3.318-2.058 1.022-1.19 1.47-2.296 1.47-5.67v-2.254c0-.476.014-.882.042-1.218Zm-6.496.112h-1.274c.042.266.056.756.056.994v4.676c0 .406-.028.854-.056 1.078h1.274a11.931 11.931 0 0 1-.042-1.078v-4.676c0-.322.014-.728.042-.994Zm22.68 1.05-.7-.672c-.196.056-.7.098-.966.098h-8.05c-.518 0-1.092-.056-1.582-.126v1.26a20.53 20.53 0 0 1 1.582-.07h7.98c-.448.868-1.764 2.38-3.066 3.122l.938.742c1.596-1.106 2.926-2.912 3.486-3.864.098-.154.266-.364.378-.49Zm-5.6 1.834h-1.26c.056.378.056.686.056 1.022 0 2.338-.308 4.326-2.464 5.656a5.574 5.574 0 0 1-1.26.63l1.022.84c3.57-1.792 3.906-4.354 3.906-8.148Zm12.936-1.834.014 1.134c1.526.168 4.242.168 5.74 0v-1.134c-1.386.21-4.228.266-5.754 0Zm.546 5.712-1.008-.098c-.154.672-.224 1.176-.224 1.638 0 1.316 1.05 2.1 3.388 2.1 1.456 0 2.632-.112 3.5-.294l-.028-1.176c-1.12.266-2.212.378-3.458.378-1.918 0-2.366-.63-2.366-1.274 0-.378.07-.77.196-1.274Zm-3.206-6.79-1.246-.098c-.014.308-.056.658-.098.98-.168 1.162-.63 3.556-.63 5.614 0 1.904.238 3.514.518 4.508l.994-.07c-.014-.154-.028-.35-.042-.49 0-.168.028-.434.07-.63.126-.672.644-2.142.994-3.136l-.588-.462c-.238.574-.56 1.414-.798 2.044a15.302 15.302 0 0 1-.126-1.946c0-1.582.434-4.074.7-5.376.056-.252.168-.7.252-.938Zm17.15 2.142v1.022h6.552v-1.022h-6.552Zm-6.09-1.05v.98h6.51v-.98h-6.51Zm9.926-2.324v11.452c0 .252-.098.322-.336.336a30.35 30.35 0 0 1-1.904-.014c.154.322.308.812.35 1.106 1.204 0 1.918-.028 2.338-.21.42-.196.602-.504.602-1.204V281.24h-1.05Zm-3.682 6.258c.672.98 1.302 2.31 1.512 3.15l.924-.448c-.224-.854-.896-2.142-1.568-3.108l-.868.406Zm-5.81-.952c1.694 1.82 3.598 4.34 4.382 5.978l.84-.714c-.812-1.61-2.758-4.06-4.466-5.852l-.756.588Zm2.24-5.278v2.87h1.008v-2.87h-1.008Zm1.596 3.598c-.602 3.892-1.904 6.72-4.606 8.33.224.196.602.616.742.826 2.772-1.862 4.186-4.788 4.9-9.002l-1.036-.154Zm14.854 2.016v5.432c0 1.19.322 1.54 1.568 1.54h2.044c1.19 0 1.47-.63 1.582-2.94-.28-.084-.7-.252-.938-.448-.07 2.058-.154 2.422-.714 2.422h-1.848c-.546 0-.658-.07-.658-.56v-5.446h-1.036Zm-1.918 1.204c-.168 1.484-.546 3.206-1.232 4.284l.924.42c.728-1.12 1.078-2.968 1.26-4.494l-.952-.21Zm2.142-2.87c1.134.602 2.548 1.526 3.234 2.17l.756-.784c-.728-.644-2.156-1.512-3.276-2.072l-.714.686Zm4.452 2.94c.924 1.456 1.764 3.388 1.988 4.634l1.022-.42c-.252-1.26-1.134-3.15-2.072-4.592l-.938.378Zm-3.71-6.902v2.38h1.078v-2.38h-1.078Zm-4.676 1.806v1.008h11.13v-1.008h-11.13Zm-.504 0v3.626c0 2.016-.098 4.844-1.246 6.86.252.112.714.406.896.588 1.204-2.128 1.4-5.292 1.4-7.448v-3.626h-1.05Zm21.098-1.148h-1.288c.028.126.07.518.098.896.042.77.056 3.556.056 4.172l1.064.546c-.014-1.12-.042-3.822 0-4.732 0-.168.042-.714.07-.882Zm-7.448 1.96.028 1.078c2.114-.154 5.11-.252 7.518-.252 2.058 0 3.318.028 4.102.07l.014-1.036c-.658-.014-2.394-.014-4.102-.014-2.156 0-5.656.126-7.56.154Zm7.35 4.06-.77-.392c.224 1.498-.336 2.226-1.204 2.226-.77 0-1.428-.504-1.428-1.386 0-.91.686-1.484 1.428-1.484.756 0 1.372.532 1.372 1.792 0 2.31-1.484 3.556-4.032 4.158l.938.91c3.248-.966 4.172-3.066 4.172-4.97 0-1.61-.826-2.814-2.45-2.814-1.33 0-2.478 1.036-2.478 2.422 0 1.526 1.134 2.352 2.31 2.352 1.274 0 2.142-.938 2.142-2.814Zm8.652-5.236.028 1.148c.308-.042.616-.056.938-.084.728-.042 3.528-.154 4.27-.196-.7.63-2.464 2.1-3.248 2.744a271.08 271.08 0 0 1-3.766 3.15l.812.812c1.764-1.806 3.024-2.786 5.348-2.786 1.834 0 3.15 1.022 3.15 2.408 0 1.75-1.498 2.73-3.878 2.73-1.106 0-1.876-.406-1.876-1.092 0-.49.49-.882 1.134-.882 1.12 0 1.806.854 1.89 2.044l1.008-.168c-.098-1.414-1.036-2.73-2.898-2.73-1.288 0-2.156.868-2.156 1.82 0 1.176 1.162 2.002 3.066 2.002 2.968 0 4.83-1.47 4.83-3.724 0-1.89-1.666-3.276-3.99-3.276-.63 0-1.302.07-1.946.28 1.092-.896 2.996-2.534 3.682-3.066.266-.21.546-.392.798-.56l-.644-.826c-.154.056-.35.084-.77.126-.742.07-4.06.168-4.802.168-.28 0-.672-.014-.98-.042Zm22.722 1.008-.854-.546c-.266.056-.546.07-.756.07h-7.014c-.462 0-1.022-.042-1.4-.098v1.246c.35-.014.826-.042 1.386-.042h7.168c-.196 1.344-.84 3.29-1.834 4.564-1.176 1.498-2.744 2.688-5.46 3.36l.952 1.05c2.562-.798 4.228-2.1 5.502-3.738 1.12-1.442 1.792-3.696 2.1-5.166.056-.28.112-.504.21-.7Zm11.06.742h-1.19c.056.308.084.672.084.952.056 1.232.126 5.432.126 7.084 0 .266-.126.42-.392.42-.406 0-1.134-.056-1.708-.14l.07 1.036c.546.028 1.47.07 2.016.07.616 0 1.064-.35 1.064-.952-.028-2.03-.098-6.286-.126-7.518 0-.322 0-.658.056-.952Zm-6.314 2.016v1.12c.336-.028.7-.042 1.064-.042h7.266c.266 0 .658.014.896.028v-1.106c-.196.042-.644.07-.938.07h-7.238c-.336 0-.714-.014-1.05-.07Zm-.364 5.362.77.854c2.142-1.12 4.438-3.234 5.18-4.606l-.014-.84-.574-.014c-.812 1.47-3.108 3.528-5.362 4.606Zm18.886.882.742.616c.112-.07.252-.196.49-.308 1.624-.812 3.556-2.24 4.774-3.878l-.672-.966c-1.064 1.582-2.786 2.856-4.088 3.444v-8.064c0-.532.056-.938.07-1.05h-1.288c0 .112.07.504.07 1.036v8.386c0 .28-.042.574-.098.784Zm-6.412-.056 1.064.7a7.785 7.785 0 0 0 2.492-3.836c.378-1.4.42-4.41.42-5.964 0-.406.056-.84.07-.994h-1.288c.07.294.098.602.098 1.008 0 1.568 0 4.354-.42 5.642-.42 1.358-1.246 2.604-2.436 3.444Zm23.8-10.934-.756.322c.378.532.854 1.372 1.134 1.932l.756-.336c-.28-.56-.784-1.414-1.134-1.918Zm1.526-.56-.728.322c.392.518.84 1.316 1.148 1.918l.756-.336a17.53 17.53 0 0 0-1.176-1.904Zm-6.874 5.768-.756.77c1.736 1.078 4.116 2.8 5.418 3.976l.812-.966c-1.372-1.134-3.682-2.744-5.474-3.78Zm6.398-2.562-.924-.56a2.64 2.64 0 0 1-.91.14h-4.452l-.448.994h5.194c-.322 1.302-1.204 3.08-2.296 4.368-1.26 1.498-3.164 2.982-5.768 3.78l.994.868c2.66-.98 4.494-2.478 5.754-4.032 1.232-1.526 2.114-3.374 2.534-4.802.084-.224.21-.56.322-.756Zm-4.718-2.016-1.26-.406c-.084.35-.322.854-.462 1.106-.644 1.274-2.086 3.374-4.48 4.872l.938.728c2.226-1.54 3.808-3.668 4.648-5.208.14-.252.378-.728.616-1.092Zm13.398-.406-1.148-.098c-.042.658-.238 1.498-.546 2.268-.476 1.19-1.414 2.814-3.43 4.746l.966.714c.462-.574.854-1.078 1.26-1.47.644-.574 1.526-1.022 2.422-1.022.728 0 1.288.378 1.302 1.19.014.728 0 2.17-.056 2.912h1.078c-.014-.868-.042-2.478-.042-3.206 0-1.134-.84-1.778-1.918-1.778-.616 0-1.414.196-1.96.518.56-.728 1.078-1.666 1.428-2.52.364-.938.518-1.708.644-2.254Zm-4.802 1.512v1.05c.784.056 1.708.084 2.31.084 1.778 0 4.382-.126 6.342-.42v-1.036c-1.974.35-4.396.462-6.286.462-.644 0-1.61-.042-2.366-.14Zm10.696 3.374-.448-1.036c-.392.196-.742.35-1.162.546-.924.434-2.058.868-3.388 1.554-1.666.854-3.402 1.904-3.402 3.612 0 1.694 1.61 2.128 3.598 2.128a36.39 36.39 0 0 0 3.836-.238l.042-1.134c-1.232.224-2.744.35-3.836.35-1.442 0-2.52-.168-2.52-1.26 0-.966.98-1.722 2.366-2.45 1.358-.7 2.688-1.232 3.682-1.624.378-.14.882-.336 1.232-.448Zm13.86-2.576-.924-.56c-.224.084-.546.126-.924.126h-4.452l-.448 1.008h5.18c-.28 1.274-1.148 3.094-2.226 4.368-1.288 1.498-3.024 2.758-5.6 3.514l1.022.924c2.618-.98 4.298-2.254 5.572-3.808 1.246-1.526 2.1-3.416 2.478-4.83a4.4 4.4 0 0 1 .322-.742Zm-4.69-2.114-1.288-.434a5.192 5.192 0 0 1-.434 1.12 11.68 11.68 0 0 1-4.41 4.732l.98.714c2.254-1.484 3.71-3.486 4.536-5.04.14-.252.392-.728.616-1.092ZM418.85 304.388h-1.316c.042.336.084.742.084 1.218v2.212c0 2.632-.182 3.78-1.176 4.928-.868.994-2.058 1.54-3.346 1.876l.924.966c1.022-.35 2.422-.966 3.318-2.058 1.022-1.19 1.47-2.296 1.47-5.67v-2.254c0-.476.014-.882.042-1.218Zm-6.496.112h-1.274c.042.266.056.756.056.994v4.676c0 .406-.028.854-.056 1.078h1.274a11.931 11.931 0 0 1-.042-1.078v-4.676c0-.322.014-.728.042-.994Zm16.408 2.45-1.036.35c.294.616.938 2.394 1.092 3.038l1.036-.378c-.168-.602-.854-2.45-1.092-3.01Zm5.068.784-1.204-.392c-.224 1.792-.938 3.584-1.932 4.802-1.148 1.428-2.94 2.492-4.55 2.968l.924.938c1.554-.588 3.262-1.68 4.564-3.318.994-1.26 1.61-2.772 1.974-4.312.056-.182.126-.406.224-.686Zm-8.33-.084-1.036.392c.28.49 1.036 2.436 1.26 3.164l1.05-.392c-.252-.742-.994-2.576-1.274-3.164Zm22.694-1.4-.924-.56c-.224.084-.546.126-.924.126h-4.452l-.448 1.008h5.18c-.28 1.274-1.148 3.094-2.226 4.368-1.288 1.498-3.024 2.758-5.6 3.514l1.022.924c2.618-.98 4.298-2.254 5.572-3.808 1.246-1.526 2.1-3.416 2.478-4.83a4.4 4.4 0 0 1 .322-.742Zm-4.69-2.114-1.288-.434a5.192 5.192 0 0 1-.434 1.12 11.68 11.68 0 0 1-4.41 4.732l.98.714c2.254-1.484 3.71-3.486 4.536-5.04.14-.252.392-.728.616-1.092Zm11.256-.042h-1.428c.084.406.126.896.126 1.414 0 1.47-.14 5.012-.14 7.084 0 2.296 1.386 3.122 3.402 3.122 3.066 0 4.886-1.75 5.838-3.08l-.784-.952c-1.008 1.456-2.464 2.884-5.026 2.884-1.33 0-2.296-.532-2.296-2.072 0-2.086.112-5.404.168-6.986.028-.462.07-.952.14-1.414Zm9.992 1.61.126 1.232c1.526-.322 5.082-.672 6.594-.826-1.288.756-2.618 2.534-2.618 4.718 0 3.136 2.94 4.508 5.544 4.606l.392-1.148c-2.268-.098-4.83-.966-4.83-3.696 0-1.652 1.218-3.794 3.22-4.438.714-.196 1.932-.224 2.744-.21l-.014-1.12c-.938.028-2.24.112-3.766.238-2.59.224-5.222.476-6.132.574-.28.028-.728.056-1.26.07Zm16.338 3.738v.868h6.944v-.868h-6.944Zm-.266 2.394v.896h7.504v-.896h-7.504Zm4.662-2.114v6.146h.952v-6.146h-.952Zm-2.87.042v2.548c0 .77-.294 2.254-1.708 3.122.238.14.56.434.7.63 1.582-1.064 1.918-2.898 1.918-3.752v-2.548h-.91Zm-3.262-3.976v.756h3.934v-.756h-3.934Zm6.454 0v.756h3.962v-.756h-3.962Zm3.556-1.946v10.92c0 .21-.07.294-.294.294-.224.014-.98.014-1.75-.014.154.294.294.784.336 1.064 1.064 0 1.764-.014 2.184-.196.42-.182.56-.518.56-1.148v-10.92h-1.036Zm-9.926 0v.812h3.5v3.108h-3.5v.798h4.494v-4.718h-4.494Zm10.43 0h-4.704v4.732h4.704v-.798h-3.696v-3.122h3.696v-.812Zm-11.06 0v12.292h1.036v-12.292h-1.036Zm22.624.84-1.05-.924c-.154.252-.518.658-.798.938-.938.952-3.066 2.632-4.13 3.514-1.26 1.064-1.414 1.666-.098 2.772 1.316 1.078 3.43 2.898 4.424 3.906.336.35.672.686.966 1.022l.994-.91c-1.484-1.498-3.962-3.486-5.236-4.536-.91-.756-.896-.966-.056-1.694 1.036-.868 3.052-2.45 4.018-3.29.224-.196.658-.574.966-.798Zm-80.993 30.316v-.756l1.582-1.568c.346-.345.612-.63.798-.854a2.22 2.22 0 0 0 .406-.616c.084-.187.126-.392.126-.616 0-.299-.088-.523-.266-.672-.168-.149-.387-.224-.658-.224a1.79 1.79 0 0 0-.7.154c-.242.093-.49.243-.742.448l-.476-.644c.206-.177.411-.322.616-.434a2.762 2.762 0 0 1 1.316-.336c.588 0 1.046.145 1.372.434.336.289.504.695.504 1.218a2 2 0 0 1-.196.882c-.13.261-.317.523-.56.784-.233.261-.508.546-.826.854l-1.358 1.316-.098-.21h3.024v.84h-3.864Zm1.834 2.772c-.793 0-1.54-.149-2.24-.448a5.934 5.934 0 0 1-1.848-1.232 5.951 5.951 0 0 1-1.232-1.848 5.66 5.66 0 0 1-.448-2.24c0-.803.15-1.549.448-2.24a5.786 5.786 0 0 1 3.08-3.08 5.643 5.643 0 0 1 2.24-.448c.803 0 1.55.149 2.24.448.7.299 1.312.714 1.834 1.246a5.647 5.647 0 0 1 1.246 1.834c.299.691.448 1.437.448 2.24 0 .793-.149 1.54-.448 2.24a5.805 5.805 0 0 1-1.246 1.848 5.758 5.758 0 0 1-1.834 1.232 5.573 5.573 0 0 1-2.24.448Zm0-.784c.691 0 1.335-.126 1.932-.378a5.064 5.064 0 0 0 1.596-1.078 4.911 4.911 0 0 0 1.064-1.582 4.855 4.855 0 0 0 .392-1.946c0-.691-.13-1.335-.392-1.932a4.88 4.88 0 0 0-2.66-2.66 4.77 4.77 0 0 0-1.932-.392c-.69 0-1.339.131-1.946.392a4.938 4.938 0 0 0-1.582 1.064 5.081 5.081 0 0 0-1.078 1.596 4.917 4.917 0 0 0-.378 1.932c0 .691.126 1.339.378 1.946a5.135 5.135 0 0 0 2.66 2.66 5.025 5.025 0 0 0 1.946.378Zm18.656-8.778v.854h9.058v-.854h-9.058Zm.826 3.78v.798h7.308v-.798h-7.308Zm-.63 1.918v.868h8.554v-.868h-8.554Zm3.682-8.554v10.906h1.022v-10.906h-1.022Zm-2.87 1.022v.84h5.964v2.884h-6.062v.84h7.098v-4.564h-7Zm-4.816-.238v.938h3.024v-.938h-3.024Zm2.646 0v.126a93.27 93.27 0 0 1-2.464 5.082l.952.266c.854-1.666 1.904-3.836 2.548-5.306l-.714-.224-.168.056h-.154Zm-1.372 3.99-.126.938h2.422v-.938h-2.296Zm1.862 0v.21c-.35 3.612-1.47 5.894-3.248 7.084.238.14.63.518.798.728 1.82-1.316 3.038-3.822 3.458-7.896l-.602-.154-.196.028h-.21Zm-1.82 2.058-.84.322c1.358 4.396 4.06 5.25 8.106 5.25h3.948c.07-.308.266-.784.434-1.022-.742.014-3.766.014-4.354.014-3.556 0-6.16-.7-7.294-4.564Zm19.586-6.944c-.476 2.128-1.302 4.144-2.478 5.404.224.14.644.448.812.602 1.176-1.386 2.1-3.514 2.618-5.81l-.952-.196Zm4.83 2.352v.252c-.294 6.146-.616 8.372-1.078 8.904-.168.182-.308.238-.532.238-.266 0-.84-.014-1.47-.07.168.28.266.728.294 1.036.616.042 1.232.056 1.596 0 .434-.042.7-.168.98-.546.574-.686.868-2.884 1.19-9.268.014-.154.014-.546.014-.546h-.994Zm-4.928 0-.448.994h5.796v-.994h-5.348Zm1.414.308c-.574 2.45-1.918 5.166-3.556 6.454.28.154.616.406.826.616 1.596-1.386 2.926-4.186 3.528-6.664l-.798-.406Zm2.002.084c-.672 3.724-2.226 7.518-4.676 9.268.308.154.686.42.896.644 2.352-1.89 3.92-5.754 4.62-9.52l-.84-.392Zm-10.304 5.026.28 1.022c1.414-.448 3.304-1.036 5.082-1.596l-.14-.924c-1.904.574-3.906 1.162-5.222 1.498Zm2.618-7.756v12.866h.98v-12.866h-.98Zm-1.736.798c-.168 1.722-.448 3.5-.98 4.69.224.098.63.336.798.462.532-1.246.882-3.136 1.092-4.998l-.91-.154Zm.084 2.058-.168 1.022h4.242v-1.022h-4.074Zm15.078-1.036v1.106a31.98 31.98 0 0 1 1.26-.028h6.65c.49 0 .812.014 1.148.028v-1.106c-.308.028-.686.042-1.148.042h-6.65c-.476 0-.896-.014-1.26-.042Zm4.284 4.494v-3.738h-1.176v7.504c0 1.134.672 1.876 2.786 1.876 1.33 0 2.688-.056 3.766-.126l.07-1.176c-1.204.14-2.352.196-3.668.196-1.302 0-1.778-.434-1.778-1.134v-3.402Zm-5.208-.532v1.176c.378-.028.952-.042 1.316-.042h8.624c.308 0 .826 0 1.148.028v-1.148c-.322.028-.882.056-1.176.056h-8.596c-.378 0-.938-.028-1.316-.07Zm15.232-4.256v1.162c.364-.028.812-.056 1.288-.056h4.83c.392 0 .882.028 1.302.056v-1.162c-.406.042-.91.07-1.302.07h-4.858c-.448 0-.868-.028-1.26-.07Zm-1.666 3.514v1.162c.378-.028.798-.042 1.218-.042h9.156c.35 0 .798.014 1.106.042v-1.162c-.35.042-.812.07-1.106.07h-9.156c-.434 0-.84-.028-1.218-.07Zm6.594.56-1.176.014c-.014 1.54-.112 2.912-.812 4.018-.56.896-1.568 1.694-2.646 2.156l1.036.756c1.19-.602 2.24-1.61 2.758-2.548.616-1.176.84-2.632.84-4.396Zm3.22-5.222-.742.322c.378.532.854 1.372 1.12 1.932l.756-.336c-.28-.56-.784-1.414-1.134-1.918Zm1.526-.56-.728.322c.392.518.854 1.316 1.162 1.918l.742-.336a17.53 17.53 0 0 0-1.176-1.904Zm8.806 11.634.742.616c.112-.07.252-.196.49-.308 1.624-.812 3.556-2.24 4.774-3.878l-.672-.966c-1.064 1.582-2.786 2.856-4.088 3.444v-8.064c0-.532.056-.938.07-1.05h-1.288c0 .112.07.504.07 1.036v8.386c0 .28-.042.574-.098.784Zm-6.412-.056 1.064.7a7.785 7.785 0 0 0 2.492-3.836c.378-1.4.42-4.41.42-5.964 0-.406.056-.84.07-.994h-1.288c.07.294.098.602.098 1.008 0 1.568 0 4.354-.42 5.642-.42 1.358-1.246 2.604-2.436 3.444Zm20.846-8.526.798-.63c-.518-.546-1.582-1.428-2.044-1.792l-.798.574c.588.448 1.512 1.302 2.044 1.848Zm-4.452-1.218-1.134.462c.224.28.504.728.672 1.008.476.798 1.106 2.156 1.764 3.626.798 1.834 1.47 4.074 1.904 5.74l1.204-.322c-.476-1.554-1.372-4.144-2.128-5.894-.574-1.274-1.246-2.688-1.792-3.668-.14-.266-.378-.714-.49-.952Zm-2.478 4.088.546 1.148c1.764-.77 5.908-3.192 8.246-3.192 1.372 0 2.03.77 2.03 1.596 0 .994-.63 1.848-2.17 1.848-.742 0-1.442-.21-1.988-.462l-.028 1.106a6.306 6.306 0 0 0 2.1.392c2.184 0 3.206-1.218 3.206-2.842 0-1.526-1.176-2.618-3.122-2.618-2.324 0-5.726 1.904-7.672 2.646-.252.112-.742.28-1.148.378Zm13.902 5.824v.868h12.558v-.868h-12.558Zm.07-9.086v.868h12.404v-.868h-12.404Zm.966 7.042v.84h10.626v-.84h-10.626Zm4.648-8.456v10.92h1.05v-10.92h-1.05Zm4.872-.994c-2.212.406-6.174.658-9.436.742.098.224.224.588.224.84 3.276-.07 7.266-.308 9.772-.77l-.56-.812Zm-8.05 6.636h7.574v1.078h-7.574v-1.078Zm0-1.764h7.574v1.064h-7.574v-1.064Zm-1.022-.756v4.354h9.66v-4.354h-9.66Zm24.794 7.07.616-.91c-1.526-1.61-2.912-2.352-4.606-2.352-1.428 0-2.436.798-2.436 1.932 0 1.414 1.134 1.974 2.478 1.974 2.45 0 3.178-2.03 3.178-5.278 0-2.296-1.008-4.004-2.884-4.004-1.764 0-3.752 1.624-4.914 2.73l-.028 1.344c1.218-1.428 3.304-3.08 4.746-3.08 1.19 0 2.016 1.106 2.016 2.856 0 2.464-.378 4.452-2.184 4.452-.784 0-1.456-.322-1.456-1.05 0-.602.672-.994 1.386-.994 1.554 0 2.814.91 4.088 2.38Zm-8.778-7.252-.112.364-.056.714c-.546.924-2.436 3.5-3.304 4.592l.7.952c.868-1.232 2.184-3.108 2.828-4.102l.42-1.904c.238-.392.616-1.008.868-1.358l-.42-.49c-.644.21-2.394.434-3.136.476-.35.014-.616.028-.924.014l.126 1.148c1.036-.154 2.548-.336 3.01-.406Zm-.14-2.324c0 .518-.336 4.956-.364 6.188-.014 1.54-.028 2.24-.028 3.598 0 .224-.028.63-.042.826h1.204c-.014-.266-.056-.616-.07-.854-.056-1.246-.056-2.1-.056-3.374 0-2.464.434-6.468.616-7.378l-1.302-.042c.056.35.042.714.042 1.036Zm13.384 2.884v.938h7.07v-.938h-7.07Zm-.252 6.804v.938h7.504v-.938h-7.504Zm-.476-4.102v5.614h1.022v-4.662h6.482v4.662h1.064v-5.614h-8.568Zm4.214-6.202c1.316 1.792 3.78 3.766 5.978 4.914.182-.308.434-.672.7-.924-2.24-.994-4.69-2.94-6.202-5.026h-1.064c-1.106 1.806-3.444 3.948-5.908 5.194.238.224.518.602.658.84 2.394-1.302 4.69-3.29 5.838-4.998Zm14.434 9.688.504 1.05c3.052-.588 5.11-2.058 5.096-4.886 0-2.17-1.722-3.528-3.668-3.528-1.47 0-3.248.588-4.928 2.17v1.246c1.358-1.414 2.968-2.408 4.76-2.408 1.862 0 2.716 1.428 2.716 2.506.014 2.408-2.114 3.5-4.48 3.85Zm-3.164-6.748-.112.364-.056.714c-.546.924-2.436 3.5-3.304 4.592l.7.952a120 120 0 0 0 2.828-4.102l.42-1.918c.238-.392.616-.994.854-1.358l-.406-.476c-.658.21-2.394.42-3.136.462-.35.028-.616.028-.924.014l.126 1.162a162.44 162.44 0 0 1 3.01-.406Zm-.14-2.324c0 .518-.336 4.956-.364 6.188-.014 1.54-.028 2.24-.028 3.598 0 .224-.028.63-.042.826h1.204c-.014-.266-.056-.616-.07-.854-.056-1.246-.056-2.1-.056-3.374 0-2.464.434-6.468.63-7.378l-1.33-.042c.07.35.056.714.056 1.036Zm20.258-.728h-1.19c.042.252.084.742.084 1.064 0 .77 0 1.75-.014 2.534-.014.994-.07 2.212-.154 2.744-.056.322-.196.378-.546.378-.322 0-.91-.07-1.4-.182l-.014.98c.364.07 1.33.196 1.848.196.63 0 .952-.182 1.078-.812.14-.728.182-2.24.21-3.318.028-.714.028-1.694.042-2.562 0-.308.028-.784.056-1.022Zm-5.53.448h-1.232c.07.42.084.756.084 1.176 0 .644-.014 5.264.014 6.44.056 2.226.364 2.982 3.598 2.982 1.428 0 3.136-.14 4.074-.238l.042-1.176c-.91.168-2.646.322-4.172.322-2.422 0-2.436-.532-2.492-2.044-.028-.966.014-4.816.028-6.328 0-.434.014-.812.056-1.134ZM577.177 330l.112 1.148c.392-.056.994-.14 1.414-.196 1.778-.21 7.406-.798 9.646-.84.35 0 .882-.014 1.092 0v-1.106c-.322.028-.728.056-1.092.07-2.87.154-8.204.714-9.716.84-.504.056-1.022.084-1.456.084Zm19.558-4.004-1.33-.112c.028.294 0 .77-.056 1.162-.098.728-.462 2.492-.798 3.78-.532 1.974-1.512 4.816-2.352 6.272l1.218.406c.742-1.526 1.68-4.424 2.184-6.412.392-1.4.686-2.982.896-3.99.056-.266.154-.798.238-1.106Zm-3.094 2.338c-.518 0-1.022-.028-1.68-.112l.028 1.092c.518.042 1.008.056 1.624.056 1.512 0 3.626-.238 5.362-.63v-1.092c-1.736.434-3.794.686-5.334.686Zm4.424 1.918v1.05a22.763 22.763 0 0 1 2.59-.154c.826 0 1.638.084 2.366.168l.028-1.064a22.665 22.665 0 0 0-2.422-.112c-.896 0-1.834.042-2.562.112Zm.28 3.402-1.036-.098c-.126.588-.21 1.12-.21 1.652 0 1.386 1.204 2.058 3.402 2.058 1.022 0 1.96-.084 2.716-.196l.042-1.12c-.868.168-1.82.266-2.744.266-1.988 0-2.366-.644-2.366-1.302 0-.364.084-.798.196-1.26Zm9.324-6.412-1.358-.028c.084.322.084.924.084 1.246 0 .812.028 2.52.154 3.724.392 3.626 1.652 4.942 2.982 4.942.952 0 1.792-.812 2.646-3.178l-.882-.994c-.364 1.4-1.022 2.842-1.736 2.842-1.008 0-1.68-1.554-1.918-3.892a35.012 35.012 0 0 1-.098-3.304c.014-.364.056-1.036.126-1.358Zm7.28.378-1.078.378c1.33 1.638 2.184 4.522 2.422 7.042l1.134-.448c-.21-2.366-1.218-5.348-2.478-6.972Zm6.44-.84v1.162c.364-.028.812-.056 1.288-.056h4.83c.392 0 .882.028 1.302.056v-1.162c-.406.042-.91.07-1.302.07h-4.858c-.448 0-.868-.028-1.26-.07Zm-1.666 3.514v1.162c.378-.028.798-.042 1.218-.042h9.156c.35 0 .798.014 1.106.042v-1.162c-.35.042-.812.07-1.106.07h-9.156c-.434 0-.84-.028-1.218-.07Zm6.594.56-1.176.014c-.014 1.54-.112 2.912-.812 4.018-.56.896-1.568 1.694-2.646 2.156l1.036.756c1.19-.602 2.24-1.61 2.758-2.548.616-1.176.84-2.632.84-4.396Zm3.22-5.222-.742.322c.378.532.854 1.372 1.12 1.932l.756-.336c-.28-.56-.784-1.414-1.134-1.918Zm1.526-.56-.728.322c.392.518.854 1.316 1.162 1.918l.742-.336a17.53 17.53 0 0 0-1.176-1.904Zm2.898 5.866v1.372c.448-.028 1.19-.056 1.96-.056h7.686c.616 0 1.204.042 1.498.056v-1.372c-.322.028-.812.084-1.512.084h-7.672c-.798 0-1.526-.042-1.96-.084Zm18.396-.35-.77.784c1.736 1.078 4.13 2.8 5.418 3.976l.826-.98c-1.386-1.12-3.682-2.73-5.474-3.78Zm6.398-2.548-.924-.56c-.224.084-.532.126-.91.126h-4.452l-.448 1.008h5.18c-.322 1.302-1.204 3.08-2.282 4.368a12.047 12.047 0 0 1-5.768 3.766l.994.882c2.66-.98 4.48-2.478 5.754-4.046 1.232-1.512 2.114-3.374 2.534-4.802a4.4 4.4 0 0 1 .322-.742Zm-4.718-2.03-1.274-.406a4.786 4.786 0 0 1-.448 1.106c-.644 1.288-2.086 3.388-4.48 4.886l.924.714c2.24-1.54 3.822-3.654 4.648-5.194.14-.266.392-.742.63-1.106Zm12.95-.07-1.148-.098c-.042.658-.238 1.498-.546 2.268-.476 1.19-1.414 2.814-3.43 4.746l.966.714c.462-.574.854-1.078 1.26-1.47.644-.574 1.526-1.022 2.422-1.022.728 0 1.288.378 1.302 1.19.014.728 0 2.17-.056 2.912h1.078c-.014-.868-.042-2.478-.042-3.206 0-1.134-.84-1.778-1.918-1.778-.616 0-1.414.196-1.96.518.56-.728 1.078-1.666 1.428-2.52.364-.938.518-1.708.644-2.254Zm-4.802 1.512v1.05c.784.056 1.708.084 2.31.084 1.778 0 4.382-.126 6.342-.42v-1.036c-1.974.35-4.396.462-6.286.462-.644 0-1.61-.042-2.366-.14Zm10.696 3.374-.448-1.036c-.392.196-.742.35-1.162.546-.924.434-2.058.868-3.388 1.554-1.666.854-3.402 1.904-3.402 3.612 0 1.694 1.61 2.128 3.598 2.128a36.39 36.39 0 0 0 3.836-.238l.042-1.134c-1.232.224-2.744.35-3.836.35-1.442 0-2.52-.168-2.52-1.26 0-.966.98-1.722 2.366-2.45 1.358-.7 2.688-1.232 3.682-1.624.378-.14.882-.336 1.232-.448Zm20.941-3.038.126 1.232c1.512-.322 5.082-.672 6.58-.826-1.274.756-2.604 2.548-2.604 4.718 0 3.136 2.94 4.508 5.53 4.606l.406-1.148c-2.268-.084-4.83-.966-4.83-3.696 0-1.652 1.218-3.794 3.22-4.438.714-.196 1.932-.224 2.744-.21l-.014-1.12c-.938.028-2.24.112-3.78.238-2.576.224-5.222.476-6.118.574-.28.028-.728.056-1.26.07Zm9.142 1.946-.7.308c.42.588.812 1.302 1.134 1.974l.728-.322c-.308-.63-.84-1.498-1.162-1.96Zm1.526-.588-.686.322c.434.588.854 1.288 1.19 1.96l.714-.35a16.428 16.428 0 0 0-1.218-1.932ZM411.346 352.77h-2.716v.98h1.722v3.976h.994v-4.956Zm0 4.536h-.896a25.582 25.582 0 0 1-1.988 1.708l.546.994a82.013 82.013 0 0 0 1.904-1.834c.882 1.106 2.156 1.61 4.018 1.68 1.596.056 4.648.028 6.244-.042.042-.294.21-.77.336-.994-1.722.112-5.012.154-6.594.084-1.666-.07-2.912-.546-3.57-1.596Zm-2.646-9.198c.812.7 1.722 1.708 2.086 2.408l.882-.602c-.392-.7-1.33-1.666-2.156-2.338l-.812.532Zm3.682 5.054v.812h8.498v-.812h-8.498Zm-.448 2.156v.826h9.38v-.826h-9.38Zm2.52-3.164v3.57h1.008v-3.57h-1.008Zm3.304 0v3.57h.994v-3.57h-.994Zm-5.026-2.716v.742h3.388v-2.38h-3.92v.728h2.996v.91h-2.464Zm-.294 0v1.47c0 .84.28 1.05 1.316 1.05h1.764c.714 0 .98-.238 1.078-1.148-.252-.042-.602-.154-.77-.294-.042.616-.112.7-.448.7h-1.526c-.448 0-.518-.056-.518-.322v-1.456h-.896Zm4.914 0v.742h3.332v-2.38h-3.892v.728h2.982v.91h-2.422Zm-.308 0v1.456c0 .854.294 1.064 1.358 1.064h1.876c.756 0 1.022-.238 1.12-1.19-.252-.056-.602-.168-.784-.294-.042.658-.112.742-.462.742H418.5c-.476 0-.56-.056-.56-.322v-1.456h-.896Zm.462 7.336c.966.504 2.002 1.176 2.562 1.694l1.036-.462c-.672-.518-1.82-1.204-2.842-1.694l-.756.462Zm-2.562-.49c-.63.574-1.68 1.106-2.632 1.484.224.14.616.476.77.658.938-.448 2.072-1.134 2.786-1.82l-.924-.322Zm13.426-8.232v4.774c0 2.086-.168 4.76-1.946 6.594.224.14.644.504.812.714 1.904-1.974 2.184-5.068 2.184-7.308v-4.774h-1.05Zm3.724 5.236-.994.182c.602 3.038 1.764 5.488 3.85 6.678.168-.28.49-.7.742-.91-1.932-.98-3.066-3.276-3.598-5.95Zm-3.304-5.236v.994h5.082v3.654h-5.082v.994h6.132v-5.642h-6.132Zm-6.146 2.044v.994h5.026v-.994h-5.026Zm2.1-2.842v11.606c0 .224-.098.28-.308.294-.21.014-.882.028-1.638 0 .14.266.28.7.322.966 1.078 0 1.694-.014 2.086-.196.378-.154.546-.448.546-1.078v-11.592h-1.008Zm-2.282 7.378.266 1.022c1.4-.336 3.276-.812 5.04-1.26l-.098-.966c-1.89.462-3.892.938-5.208 1.204Zm22.316-6.72h-1.288c.028.126.07.518.098.896.042.77.056 3.556.056 4.172l1.064.546c-.014-1.12-.042-3.822 0-4.732 0-.168.042-.714.07-.882Zm-7.448 1.96.028 1.078c2.114-.154 5.11-.252 7.518-.252 2.058 0 3.318.028 4.102.07l.014-1.036c-.658-.014-2.394-.014-4.102-.014-2.156 0-5.656.126-7.56.154Zm7.35 4.06-.77-.392c.224 1.498-.336 2.226-1.204 2.226-.77 0-1.428-.504-1.428-1.386 0-.91.686-1.484 1.428-1.484.756 0 1.372.532 1.372 1.792 0 2.31-1.484 3.556-4.032 4.158l.938.91c3.248-.966 4.172-3.066 4.172-4.97 0-1.61-.826-2.814-2.45-2.814-1.33 0-2.478 1.036-2.478 2.422 0 1.526 1.134 2.352 2.31 2.352 1.274 0 2.142-.938 2.142-2.814Zm8.652-5.236.028 1.148c.308-.042.616-.056.938-.084.728-.042 3.528-.154 4.27-.196-.7.63-2.464 2.1-3.248 2.744a271.08 271.08 0 0 1-3.766 3.15l.812.812c1.764-1.806 3.024-2.786 5.348-2.786 1.834 0 3.15 1.022 3.15 2.408 0 1.75-1.498 2.73-3.878 2.73-1.106 0-1.876-.406-1.876-1.092 0-.49.49-.882 1.134-.882 1.12 0 1.806.854 1.89 2.044l1.008-.168c-.098-1.414-1.036-2.73-2.898-2.73-1.288 0-2.156.868-2.156 1.82 0 1.176 1.162 2.002 3.066 2.002 2.968 0 4.83-1.47 4.83-3.724 0-1.89-1.666-3.276-3.99-3.276-.63 0-1.302.07-1.946.28 1.092-.896 2.996-2.534 3.682-3.066.266-.21.546-.392.798-.56l-.644-.826c-.154.056-.35.084-.77.126-.742.07-4.06.168-4.802.168-.28 0-.672-.014-.98-.042Z" fill="#000" fill-opacity=".45"/><path d="M685.875 332.501H683.5v-2.375a.125.125 0 0 0-.125-.125h-.75a.125.125 0 0 0-.125.125v2.375h-2.375a.125.125 0 0 0-.125.125v.75c0 .068.056.125.125.125h2.375v2.375c0 .068.056.125.125.125h.75a.126.126 0 0 0 .125-.125v-2.375h2.375a.126.126 0 0 0 .125-.125v-.75a.125.125 0 0 0-.125-.125Z" fill="#00BEBE"/><path d="M683 326a7 7 0 1 0 0 14 7 7 0 0 0 0-14Zm0 12.812a5.813 5.813 0 0 1 0-11.624 5.813 5.813 0 0 1 0 11.624Z" fill="#00BEBE"/></svg>